<svg width="227" height="226" xmlns="http://www.w3.org/2000/svg" xmlns:xlink="http://www.w3.org/1999/xlink" overflow="hidden"><defs><clipPath id="clip0"><rect x="1281" y="1615" width="227" height="226"/></clipPath></defs><g clip-path="url(#clip0)" transform="translate(-1281 -1615)"><path d="M1318.01 1615C1297.6 1615 1281 1631.53 1281 1651.85L1281 1676.42C1281 1680.49 1284.31 1683.78 1288.4 1683.78 1292.49 1683.78 1295.81 1680.49 1295.81 1676.42L1295.81 1651.85C1295.81 1639.66 1305.77 1629.74 1318.01 1629.74L1342.69 1629.74C1346.77 1629.74 1350.09 1626.44 1350.09 1622.37 1350.09 1618.3 1346.77 1615 1342.69 1615L1318.01 1615ZM1446.31 1615C1442.23 1615 1438.91 1618.3 1438.91 1622.37 1438.91 1626.44 1442.23 1629.74 1446.31 1629.74L1470.99 1629.74C1483.23 1629.74 1493.19 1639.66 1493.19 1651.85L1493.19 1676.42C1493.19 1680.49 1496.51 1683.78 1500.6 1683.78 1504.69 1683.78 1508 1680.49 1508 1676.42L1508 1651.85C1508 1631.53 1491.4 1615 1470.99 1615L1446.31 1615ZM1394.5 1644.47C1353.82 1644.47 1325.41 1672.86 1325.41 1713.57 1325.41 1764.03 1389.99 1814.56 1390.64 1815.05 1391.82 1815.93 1393.13 1816.43 1394.5 1816.43 1395.88 1816.43 1397.18 1815.94 1398.36 1815.05 1399.01 1814.56 1463.59 1763.72 1463.59 1713.57 1463.59 1672.86 1435.18 1644.47 1394.5 1644.47ZM1394.5 1659.22C1426.97 1659.22 1448.78 1681.03 1448.78 1713.57 1448.78 1730.39 1439.06 1750.92 1420.56 1772.83 1410.46 1784.8 1400.31 1794.18 1394.5 1799.24 1375.61 1783.08 1340.22 1746.07 1340.22 1713.57 1340.22 1681.03 1362.03 1659.22 1394.5 1659.22ZM1394.5 1693.61C1383.6 1693.61 1374.76 1702.41 1374.76 1713.26 1374.76 1724.12 1383.6 1732.92 1394.5 1732.92 1405.4 1732.92 1414.24 1724.12 1414.24 1713.26 1414.24 1702.41 1405.4 1693.61 1394.5 1693.61ZM1288.4 1772.22C1284.31 1772.22 1281 1775.51 1281 1779.58L1281 1804.15C1281 1824.47 1297.6 1841 1318.01 1841L1342.69 1841C1346.77 1841 1350.09 1837.7 1350.09 1833.63 1350.09 1829.56 1346.77 1826.26 1342.69 1826.26L1318.01 1826.26C1305.77 1826.26 1295.81 1816.34 1295.81 1804.15L1295.81 1779.58C1295.81 1775.51 1292.49 1772.22 1288.4 1772.22ZM1500.6 1772.22C1496.51 1772.22 1493.19 1775.51 1493.19 1779.58L1493.19 1804.15C1493.19 1816.34 1483.23 1826.26 1470.99 1826.26L1446.31 1826.26C1442.23 1826.26 1438.91 1829.56 1438.91 1833.63 1438.91 1837.7 1442.23 1841 1446.31 1841L1470.99 1841C1491.4 1841 1508 1824.47 1508 1804.15L1508 1779.58C1508 1775.51 1504.69 1772.22 1500.6 1772.22Z" fill="#677B8C" fill-rule="evenodd"/></g></svg>