<svg width="221" height="225" xmlns="http://www.w3.org/2000/svg" xmlns:xlink="http://www.w3.org/1999/xlink" overflow="hidden"><defs><clipPath id="clip0"><rect x="5839" y="3002" width="221" height="225"/></clipPath></defs><g clip-path="url(#clip0)" transform="translate(-5839 -3002)"><path d="M5949.5 3002C5888.57 3002 5839 3051.37 5839 3112.08 5839 3142.92 5852.17 3172.48 5875.04 3193.3 5877.96 3195.96 5882.41 3195.78 5885.09 3192.85 5887.77 3189.91 5887.58 3185.51 5884.64 3182.82 5864.75 3164.72 5853.42 3138.89 5853.42 3112.08 5853.42 3059.3 5896.51 3016.36 5949.5 3016.36 6002.49 3016.36 6045.58 3059.3 6045.58 3112.08 6045.58 3138.89 6034.25 3164.72 6014.36 3182.82 6011.42 3185.5 6011.23 3189.91 6013.91 3192.85 6015.33 3194.39 6017.21 3195.24 6019.17 3195.24 6020.9 3195.24 6022.58 3194.55 6023.96 3193.3 6046.83 3172.48 6060 3142.92 6060 3112.08 6060 3051.37 6010.43 3002 5949.5 3002ZM5949.5 3040.29C5909.76 3040.29 5877.44 3072.5 5877.44 3112.08 5877.44 3126.35 5881.66 3140.18 5889.59 3152.01 5891.81 3155.3 5896.2 3156.14 5899.51 3153.96 5902.81 3151.75 5903.82 3147.24 5901.61 3143.93 5895.25 3134.48 5891.85 3123.49 5891.85 3112.08 5891.85 3080.41 5917.71 3054.64 5949.5 3054.64 5981.29 3054.64 6007.15 3080.41 6007.15 3112.08 6007.15 3123.5 6003.75 3134.48 5997.39 3143.93 5995.18 3147.23 5996.19 3151.75 5999.49 3153.96 6000.73 3154.77 6002.02 3155.16 6003.4 3155.16 6005.72 3155.16 6008.01 3154.08 6009.41 3152.01 6017.34 3140.18 6021.56 3126.35 6021.56 3112.08 6021.56 3072.5 5989.24 3040.29 5949.5 3040.29ZM5949.5 3083.37C5933.6 3083.37 5920.68 3096.24 5920.68 3112.08 5920.68 3118.73 5923.05 3125.08 5927.28 3130.17L5892.3 3217.07C5891.25 3219.67 5891.88 3222.67 5893.8 3224.7 5895.73 3226.74 5898.64 3227.52 5901.31 3226.65L5949.5 3210.64 5997.69 3226.65C5998.45 3226.9 5999.18 3226.95 5999.94 3226.95 6001.9 3226.95 6003.81 3226.16 6005.2 3224.7 6007.12 3222.67 6007.75 3219.66 6006.7 3217.07 6006.7 3217.07 5971.72 3130.17 5971.72 3130.17 5975.95 3125.08 5978.32 3118.73 5978.32 3112.08 5978.32 3096.24 5965.4 3083.37 5949.5 3083.37ZM5949.5 3097.72C5957.45 3097.72 5963.92 3104.16 5963.92 3112.08 5963.92 3116.25 5961.98 3120.23 5958.66 3123 5956.27 3124.99 5955.39 3128.34 5956.56 3131.23L5987.48 3208.1C5987.48 3208.1 5951.75 3196.14 5951.75 3196.14 5951.01 3195.89 5950.27 3195.83 5949.5 3195.83 5948.73 3195.83 5947.99 3195.9 5947.25 3196.14L5911.52 3208.1 5942.44 3131.23C5943.61 3128.34 5942.73 3124.99 5940.34 3123 5937.02 3120.22 5935.08 3116.25 5935.08 3112.08 5935.08 3104.16 5941.55 3097.72 5949.5 3097.72Z" fill="#677B8C" fill-rule="evenodd"/></g></svg>