<svg width="238" height="238" xmlns="http://www.w3.org/2000/svg" xmlns:xlink="http://www.w3.org/1999/xlink" overflow="hidden"><defs><clipPath id="clip0"><rect x="2042" y="2985" width="238" height="238"/></clipPath></defs><g clip-path="url(#clip0)" transform="translate(-2042 -2985)"><path d="M2252.73 3079.21C2245.9 3079.21 2240.33 3073.66 2240.33 3066.81 2240.33 3059.97 2245.9 3054.42 2252.73 3054.42 2259.56 3054.42 2265.12 3059.97 2265.12 3066.81 2265.12 3073.66 2259.56 3079.21 2252.73 3079.21ZM2158.52 3208.12C2151.69 3208.12 2146.12 3202.57 2146.12 3195.73 2146.12 3188.89 2151.69 3183.33 2158.52 3183.33 2165.35 3183.33 2170.92 3188.89 2170.92 3195.73 2170.92 3202.57 2165.35 3208.12 2158.52 3208.12ZM2056.88 3091.6C2056.88 3084.76 2062.44 3079.21 2069.27 3079.21 2076.1 3079.21 2081.67 3084.76 2081.67 3091.6 2081.67 3098.45 2076.1 3104 2069.27 3104 2062.44 3104 2056.88 3098.45 2056.88 3091.6ZM2163.48 2999.88C2170.31 2999.88 2175.88 3005.43 2175.88 3012.27 2175.88 3019.11 2170.31 3024.67 2163.48 3024.67 2156.65 3024.67 2151.08 3019.11 2151.08 3012.27 2151.08 3005.43 2156.65 2999.88 2163.48 2999.88ZM2158.52 3168.46C2154.44 3168.46 2150.59 3169.38 2147.12 3170.99L2091.98 3106.68C2094.86 3102.35 2096.54 3097.17 2096.54 3091.6 2096.54 3087.62 2095.66 3083.84 2094.11 3080.41L2148.21 3034.86C2152.57 3037.81 2157.83 3039.54 2163.48 3039.54 2170.61 3039.54 2177.09 3036.78 2181.95 3032.28L2226.48 3059.5C2225.83 3061.82 2225.46 3064.28 2225.46 3066.81 2225.46 3073.14 2227.64 3078.94 2231.27 3083.57L2167.97 3170.18C2165.02 3169.09 2161.85 3168.46 2158.52 3168.46ZM2252.73 3039.54C2245.6 3039.54 2239.12 3042.31 2234.26 3046.8L2189.73 3019.59C2190.38 3017.26 2190.75 3014.81 2190.75 3012.27 2190.75 2997.23 2178.52 2985 2163.48 2985 2148.44 2985 2136.21 2997.23 2136.21 3012.27 2136.21 3016.26 2137.09 3020.04 2138.64 3023.47L2084.54 3069.02C2080.18 3066.06 2074.92 3064.33 2069.27 3064.33 2054.23 3064.33 2042 3076.56 2042 3091.6 2042 3106.64 2054.23 3118.88 2069.27 3118.88 2073.35 3118.88 2077.2 3117.95 2080.67 3116.34L2135.81 3180.66C2132.94 3184.99 2131.25 3190.17 2131.25 3195.73 2131.25 3210.77 2143.48 3223 2158.52 3223 2173.56 3223 2185.79 3210.77 2185.79 3195.73 2185.79 3189.4 2183.61 3183.6 2179.98 3178.97L2243.28 3092.36C2246.23 3093.46 2249.4 3094.08 2252.73 3094.08 2267.77 3094.08 2280 3081.85 2280 3066.81 2280 3051.77 2267.77 3039.54 2252.73 3039.54Z" fill="#677B8C" fill-rule="evenodd"/></g></svg>