<?xml version="1.0" encoding="utf-8"?>
<!-- Generator: Adobe Illustrator 26.2.1, SVG Export Plug-In . SVG Version: 6.00 Build 0)  -->
<svg version="1.1" id="Layer_1" xmlns="http://www.w3.org/2000/svg" xmlns:xlink="http://www.w3.org/1999/xlink" x="0px" y="0px"
	 viewBox="0 0 1061 970.7" style="enable-background:new 0 0 1061 970.7;" xml:space="preserve">
<style type="text/css">
	.st0{display:none;}
	.st1{display:inline;opacity:0.2;fill:none;stroke:#29ABE2;stroke-width:2;stroke-miterlimit:10;enable-background:new    ;}
	.st2{display:inline;}
	.st3{fill:none;}
	.st4{display:inline;opacity:0.2;fill:#29ABE2;enable-background:new    ;}
	.st5{display:inline;fill:none;}
	.st6{fill:url(#SVGID_1_);}
	.st7{fill:url(#SVGID_00000056404276795768348760000012527106033238709671_);}
	.st8{fill:url(#SVGID_00000183206795644056980380000006166637884262543245_);}
	.st9{fill:url(#SVGID_00000096775501862885181790000005122520283648904866_);}
	.st10{fill:url(#SVGID_00000064316458836378951220000016101683313316557999_);}
	.st11{fill:url(#SVGID_00000128461398817835368520000006738623243182540973_);}
	.st12{fill:url(#SVGID_00000005263280848309985920000009351937325274133435_);}
	.st13{fill:url(#SVGID_00000121980402089942175860000003761123320023261329_);}
	.st14{fill:url(#SVGID_00000066516481587136063040000010117647274827205766_);}
	.st15{fill:url(#SVGID_00000066477616964886625100000001265196804584954782_);}
	.st16{fill:url(#SVGID_00000018204068241057168080000008968347474205046401_);}
</style>
<g id="Guides_DO_NOT_PRINT" class="st0">
	<rect x="112" y="112" class="st1" width="837" height="746.7"/>
	<g class="st2">
		<rect class="st3" width="1061" height="970.7"/>
	</g>
	<rect x="949" y="858.7" class="st4" width="112" height="112"/>
	<rect class="st4" width="112" height="112"/>
	<rect x="949" y="0" class="st4" width="112" height="112"/>
	<rect x="0" y="858.7" class="st4" width="112" height="112"/>
	<rect class="st5" width="1061" height="970.7"/>
</g>
<g id="Artwork">
	<g>
		
			<linearGradient id="SVGID_1_" gradientUnits="userSpaceOnUse" x1="308.3" y1="934.3127" x2="308.3" y2="109.8121" gradientTransform="matrix(1 0 0 -1 0 970)">
			<stop  offset="0.2" style="stop-color:#312CB5"/>
			<stop  offset="1" style="stop-color:#009EC9"/>
		</linearGradient>
		<path class="st6" d="M304.2,739v-12.9h-18.4v88.8h18.4v-46.7c0-18.9,8.4-24.5,21.9-24.5h4.7v-19
			C318.2,724.6,309.4,730.1,304.2,739z"/>
		
			<linearGradient id="SVGID_00000010290040310411210330000006877835472040828837_" gradientUnits="userSpaceOnUse" x1="363.1" y1="934.3127" x2="363.1" y2="109.8121" gradientTransform="matrix(1 0 0 -1 0 970)">
			<stop  offset="0.2" style="stop-color:#312CB5"/>
			<stop  offset="1" style="stop-color:#009EC9"/>
		</linearGradient>
		<path style="fill:url(#SVGID_00000010290040310411210330000006877835472040828837_);" d="M359,739v-12.9h-18.4v88.8H359v-46.7
			c0-18.9,8.4-24.5,21.9-24.5h4.7v-19C373,724.6,364.1,730.1,359,739z"/>
		
			<linearGradient id="SVGID_00000023967871197865276840000014377708831721631927_" gradientUnits="userSpaceOnUse" x1="228.65" y1="934.3127" x2="228.65" y2="109.8121" gradientTransform="matrix(1 0 0 -1 0 970)">
			<stop  offset="0.2" style="stop-color:#312CB5"/>
			<stop  offset="1" style="stop-color:#009EC9"/>
		</linearGradient>
		<path style="fill:url(#SVGID_00000023967871197865276840000014377708831721631927_);" d="M229.2,724.6
			c-26.3,0-44.3,17.9-44.3,45.8c0,27.9,18.9,45.9,44.3,45.9c21.8,0,35.8-12.4,40.8-27.9h-19.8c-3.4,6.9-9.7,12.4-20.9,12.4
			c-13.5,0-24-8.9-25.3-23.5h67.8c0.5-3.1,0.6-6,0.6-9C272.3,742.2,254.5,724.6,229.2,724.6z M204,762.5c1.9-14,11.9-22.4,24.3-22.4
			c13.7,0,24.5,8.7,24.8,22.4H204z"/>
		
			<linearGradient id="SVGID_00000083795108844782527630000017921263615151412159_" gradientUnits="userSpaceOnUse" x1="698.7" y1="934.3127" x2="698.7" y2="109.8121" gradientTransform="matrix(1 0 0 -1 0 970)">
			<stop  offset="0.2" style="stop-color:#312CB5"/>
			<stop  offset="1" style="stop-color:#009EC9"/>
		</linearGradient>
		<path style="fill:url(#SVGID_00000083795108844782527630000017921263615151412159_);" d="M725.8,739c-5.5-7.3-15.8-14.3-30.8-14.3
			c-23.4,0-41.9,18-41.9,45.4s18.5,46.2,41.6,46.2c14.8,0,25.5-7.1,31.1-14.7v13.2h18.5V726h-18.5L725.8,739L725.8,739z
			 M698.9,800.4c-13.7,0-26.9-11.1-26.9-30.3s13.2-29.5,26.9-29.5c13.9,0,26.9,10.8,26.9,29.8C725.8,789.6,712.8,800.4,698.9,800.4z
			"/>
		
			<linearGradient id="SVGID_00000005966575534255054540000016534059289276285327_" gradientUnits="userSpaceOnUse" x1="908.35" y1="934.3127" x2="908.35" y2="109.8121" gradientTransform="matrix(1 0 0 -1 0 970)">
			<stop  offset="0.2" style="stop-color:#312CB5"/>
			<stop  offset="1" style="stop-color:#009EC9"/>
		</linearGradient>
		<path style="fill:url(#SVGID_00000005966575534255054540000016534059289276285327_);" d="M913.7,724.6c-11.4,0-21.4,4.4-27.6,11.8
			v-40.8h-18.4v119.2h18.4v-49.6c0-16.3,8.9-24.7,22.4-24.7c13.4,0,22.2,8.4,22.2,24.7v49.6H949v-52.4
			C949,737.7,933.5,724.6,913.7,724.6z"/>
		
			<linearGradient id="SVGID_00000155121714042330562920000016075531995032547996_" gradientUnits="userSpaceOnUse" x1="151.1" y1="934.3127" x2="151.1" y2="109.8121" gradientTransform="matrix(1 0 0 -1 0 970)">
			<stop  offset="0.2" style="stop-color:#312CB5"/>
			<stop  offset="1" style="stop-color:#009EC9"/>
		</linearGradient>
		<polygon style="fill:url(#SVGID_00000155121714042330562920000016075531995032547996_);" points="190.2,702.9 112,702.9 
			112,717.9 142,717.9 142,814.9 160.3,814.9 160.3,717.9 190.2,717.9 		"/>
		
			<linearGradient id="SVGID_00000113315715794275277540000015940913528264643248_" gradientUnits="userSpaceOnUse" x1="626.7" y1="934.3127" x2="626.7" y2="109.8121" gradientTransform="matrix(1 0 0 -1 0 970)">
			<stop  offset="0.2" style="stop-color:#312CB5"/>
			<stop  offset="1" style="stop-color:#009EC9"/>
		</linearGradient>
		<path style="fill:url(#SVGID_00000113315715794275277540000015940913528264643248_);" d="M622.6,739v-12.9h-18.4v88.8h18.4v-46.7
			c0-18.9,8.4-24.5,21.9-24.5h4.7v-19C636.6,724.6,627.8,730.1,622.6,739z"/>
		
			<linearGradient id="SVGID_00000062900282290384459610000009255039382032443780_" gradientUnits="userSpaceOnUse" x1="808.7" y1="934.3127" x2="808.7" y2="109.8121" gradientTransform="matrix(1 0 0 -1 0 970)">
			<stop  offset="0.2" style="stop-color:#312CB5"/>
			<stop  offset="1" style="stop-color:#009EC9"/>
		</linearGradient>
		<path style="fill:url(#SVGID_00000062900282290384459610000009255039382032443780_);" d="M812.5,724.6c-14.5,0-25.3,7.1-30.9,14.5
			V726h-18.4v131h18.4v-55c5.8,6.9,16.3,14.3,30.9,14.3c23.4,0,41.7-18.9,41.7-46.2C854.2,742.7,835.9,724.6,812.5,724.6z
			 M808.5,800.4c-13.7,0-26.9-10.8-26.9-30c0-19,13.2-29.8,26.9-29.8c13.9,0,27.1,10.3,27.1,29.5
			C835.5,789.3,822.3,800.4,808.5,800.4z"/>
		
			<linearGradient id="SVGID_00000094591370110788338530000015179903290098571676_" gradientUnits="userSpaceOnUse" x1="435.1" y1="934.3127" x2="435.1" y2="109.8121" gradientTransform="matrix(1 0 0 -1 0 970)">
			<stop  offset="0.2" style="stop-color:#312CB5"/>
			<stop  offset="1" style="stop-color:#009EC9"/>
		</linearGradient>
		<path style="fill:url(#SVGID_00000094591370110788338530000015179903290098571676_);" d="M462.2,739c-5.5-7.3-15.8-14.3-30.8-14.3
			c-23.4,0-41.9,18-41.9,45.4s18.5,46.2,41.6,46.2c14.8,0,25.5-7.1,31.1-14.7v13.2h18.5V726h-18.5L462.2,739L462.2,739z
			 M435.3,800.4c-13.7,0-26.9-11.1-26.9-30.3s13.2-29.5,26.9-29.5c13.9,0,26.9,10.8,26.9,29.8C462.2,789.6,449.1,800.4,435.3,800.4z
			"/>
		
			<linearGradient id="SVGID_00000176037641322652147730000014491663254763450522_" gradientUnits="userSpaceOnUse" x1="539.8" y1="934.3127" x2="539.8" y2="109.8121" gradientTransform="matrix(1 0 0 -1 0 970)">
			<stop  offset="0.2" style="stop-color:#312CB5"/>
			<stop  offset="1" style="stop-color:#009EC9"/>
		</linearGradient>
		<path style="fill:url(#SVGID_00000176037641322652147730000014491663254763450522_);" d="M566.9,739c-5.5-7.6-16.3-14.3-30.8-14.3
			c-23.4,0-41.9,18-41.9,45.4s18.5,46.2,41.9,46.2c14.5,0,25.1-7.3,30.8-14.8v14.8c0,17.7-10.6,26.4-24.8,26.4
			c-12.7,0-22.6-6.3-25.3-15.5h-18.2c2.3,19.7,19.8,31.4,43.5,31.4c27.7,0,43.3-18.2,43.3-42.4V726h-18.5V739z M540,800.4
			c-13.7,0-26.9-11.1-26.9-30.3s13.2-29.5,26.9-29.5c13.9,0,26.9,10.8,26.9,29.8C566.9,789.6,553.8,800.4,540,800.4z"/>
		
			<linearGradient id="SVGID_00000165212652804703498940000005732594293061124771_" gradientUnits="userSpaceOnUse" x1="539.7" y1="858" x2="539.7" y2="334.7" gradientTransform="matrix(1 0 0 -1 0 970)">
			<stop  offset="0.2" style="stop-color:#312CB5"/>
			<stop  offset="1" style="stop-color:#009EC9"/>
		</linearGradient>
		<path style="fill:url(#SVGID_00000165212652804703498940000005732594293061124771_);" d="M773.8,262.9v-77.3
			c15.9-4.4,27.5-18.9,27.5-36.1c0-20.7-16.8-37.5-37.5-37.5s-37.5,16.8-37.5,37.5c0,6.7,1.8,13,4.9,18.5l-98.4,98.4
			c-5.5-3.1-11.8-4.9-18.5-4.9c-20.7,0-37.5,16.8-37.5,37.5c0,6.7,1.8,13,4.9,18.5l-98.4,98.4c-2.6-1.5-5.5-2.7-8.5-3.5v-77.2
			c15.9-4.4,27.5-18.9,27.5-36.1c0-20.7-16.8-37.5-37.5-37.5c-17.2,0-31.8,11.6-36.1,27.5h-77.2c-3.5-12.7-13.5-22.6-26.1-26.1
			v-77.2c12.7-3.5,22.6-13.5,26.1-26.1h77.2c4.4,15.9,18.9,27.5,36.1,27.5s31.8-11.6,36.1-27.5h77.3c4.4,15.8,18.9,27.4,36.1,27.4
			c20.7,0,37.5-16.8,37.5-37.5s-16.8-37.5-37.5-37.5c-17.2,0-31.7,11.6-36.1,27.5H501c-4.4-15.9-18.9-27.5-36.1-27.5
			s-31.8,11.6-36.1,27.5h-77.2c-4.4-15.9-18.9-27.5-36.1-27.5c-20.7,0-37.5,16.8-37.5,37.5c0,17.2,11.6,31.8,27.5,36.1v77.2
			c-15.9,4.4-27.5,18.9-27.5,36.1c0,20.7,16.8,37.5,37.5,37.5c17.2,0,31.8-11.6,36.1-27.5h77.2c3.5,12.7,13.5,22.6,26.1,26.1v77.2
			c-15.8,4.4-27.5,18.9-27.5,36.1c0,20.7,16.8,37.5,37.5,37.5s37.5-16.8,37.5-37.5c0-6.7-1.8-13-4.9-18.5l98.4-98.4
			c2.6,1.5,5.5,2.7,8.5,3.5v77.2c-15.9,4.4-27.5,18.9-27.5,36.1s11.6,31.8,27.5,36.1v77.2c-12.9,3.6-23,13.8-26.3,26.8h-76.8
			c-4.2-16.2-18.8-28.1-36.3-28.1c-20.7,0-37.5,16.8-37.5,37.5s16.8,37.5,37.5,37.5c17,0,31.4-11.3,35.9-26.8h77.6
			c4.6,15.5,18.9,26.8,35.9,26.8c20.7,0,37.5-16.8,37.5-37.5c0-17.2-11.6-31.8-27.5-36.1v-77.2c15.8-4.4,27.5-18.9,27.5-36.1
			s-11.6-31.8-27.5-36.1v-77.2c15.8-4.4,27.5-18.9,27.5-36.1c0-6.7-1.8-13-4.9-18.5l98.4-98.4c2.6,1.5,5.5,2.7,8.4,3.5v77.3
			c-15.8,4.4-27.4,18.9-27.4,36.1c0,20.7,16.8,37.5,37.5,37.5s37.5-16.8,37.5-37.5C801.3,281.7,789.6,267.2,773.8,262.9z"/>
	</g>
</g>
</svg>
