<?xml version="1.0" encoding="utf-8"?>
<!-- Generator: Adobe Illustrator 26.2.1, SVG Export Plug-In . SVG Version: 6.00 Build 0)  -->
<svg version="1.1" xmlns="http://www.w3.org/2000/svg" xmlns:xlink="http://www.w3.org/1999/xlink" x="0px" y="0px"
	 viewBox="0 0 1061 388.1" style="enable-background:new 0 0 1061 388.1;" xml:space="preserve">
<style type="text/css">
	.st0{display:none;}
	.st1{display:inline;opacity:0.2;fill:none;stroke:#29ABE2;stroke-width:0.9347;stroke-miterlimit:10;}
	.st2{display:inline;opacity:0.2;fill:#29ABE2;}
	.st3{fill:url(#SVGID_1_);}
</style>
<g id="Guides_DO_NOT_PRINT" class="st0">
	<rect x="112" y="112.5" class="st1" width="837" height="163.1"/>
	<rect x="949" y="275.6" class="st2" width="112" height="112"/>
	<rect x="0" y="0.5" class="st2" width="112" height="112"/>
	
		<rect x="949" y="0.5" transform="matrix(4.492413e-11 -1 1 4.492413e-11 948.5102 1061.4789)" class="st2" width="112" height="112"/>
	
		<rect x="0" y="275.6" transform="matrix(4.492413e-11 -1 1 4.492413e-11 -275.5761 387.5734)" class="st2" width="112" height="112"/>
	<rect x="0" y="0.5" class="st1" width="1061" height="387.1"/>
</g>
<g id="Artwork">
	<linearGradient id="SVGID_1_" gradientUnits="userSpaceOnUse" x1="111.9966" y1="194.029" x2="948.9966" y2="194.029">
		<stop  offset="0.2" style="stop-color:#312CB5"/>
		<stop  offset="1" style="stop-color:#009EC9"/>
	</linearGradient>
	<path class="st3" d="M330.8,141.5v19h-4.7c-13.5,0-21.9,5.6-21.9,24.5v46.7h-18.4v-88.8h18.4v12.9
		C309.4,147,318.2,141.5,330.8,141.5z M359,155.8v-12.9h-18.4v88.8H359V185c0-18.9,8.4-24.5,21.9-24.5h4.7v-19
		C373,141.5,364.1,147,359,155.8z M272.3,185.2c0,3.1-0.2,6-0.6,9h-67.8c1.3,14.7,11.8,23.5,25.3,23.5c11.3,0,17.6-5.5,20.9-12.4
		h19.8c-5,15.5-19,27.9-40.8,27.9c-25.5,0-44.3-18-44.3-45.9c0-27.9,18-45.8,44.3-45.8C254.5,141.5,272.3,159.1,272.3,185.2z
		 M253.2,179.4c-0.3-13.7-11.1-22.4-24.8-22.4c-12.4,0-22.4,8.4-24.3,22.4H253.2z M725.8,142.9h18.5v88.8h-18.5v-13.2
		c-5.6,7.6-16.3,14.7-31.1,14.7c-23,0-41.6-18.9-41.6-46.2c0-27.4,18.5-45.4,41.9-45.4c15,0,25.3,7.1,30.8,14.3V142.9z M725.8,187.3
		c0-19-13.1-29.8-26.9-29.8c-13.7,0-26.9,10.3-26.9,29.5c0,19.2,13.2,30.3,26.9,30.3C712.8,217.2,725.8,206.4,725.8,187.3z
		 M913.7,141.5c-11.4,0-21.4,4.4-27.6,11.8v-40.8h-18.4v119.2h18.4v-49.6c0-16.3,8.9-24.7,22.4-24.7c13.4,0,22.2,8.4,22.2,24.7v49.6
		H949v-52.4C949,154.5,933.5,141.5,913.7,141.5z M190.2,119.7H112v15h30v97h18.4v-97h29.8V119.7z M622.6,155.8v-12.9h-18.4v88.8
		h18.4V185c0-18.9,8.4-24.5,21.9-24.5h4.7v-19C636.6,141.5,627.8,147,622.6,155.8z M854.2,186.9c0,27.4-18.4,46.2-41.7,46.2
		c-14.7,0-25.1-7.4-30.9-14.3V274h-18.4v-131h18.4V156c5.6-7.4,16.4-14.5,30.9-14.5C835.9,141.5,854.2,159.5,854.2,186.9z
		 M835.5,186.9c0-19.2-13.2-29.5-27.1-29.5c-13.7,0-26.9,10.8-26.9,29.8c0,19.2,13.2,30,26.9,30
		C822.3,217.2,835.5,206.1,835.5,186.9z M462.2,142.9h18.5v88.8h-18.5v-13.2c-5.6,7.6-16.3,14.7-31.1,14.7
		c-23,0-41.6-18.9-41.6-46.2c0-27.4,18.5-45.4,41.9-45.4c15,0,25.3,7.1,30.8,14.3V142.9z M462.2,187.3c0-19-13.1-29.8-26.9-29.8
		c-13.7,0-26.9,10.3-26.9,29.5c0,19.2,13.2,30.3,26.9,30.3C449.1,217.2,462.2,206.4,462.2,187.3z M566.9,142.9h18.5v90.2
		c0,24.2-15.6,42.4-43.3,42.4c-23.7,0-41.3-11.8-43.5-31.4h18.2c2.7,9.2,12.6,15.5,25.3,15.5c14.2,0,24.8-8.7,24.8-26.4v-14.8
		c-5.6,7.6-16.3,14.8-30.8,14.8c-23.4,0-41.9-18.9-41.9-46.2c0-27.4,18.5-45.4,41.9-45.4c14.5,0,25.3,6.8,30.8,14.3V142.9z
		 M566.9,187.3c0-19-13.1-29.8-26.9-29.8c-13.7,0-26.9,10.3-26.9,29.5c0,19.2,13.2,30.3,26.9,30.3
		C553.8,217.2,566.9,206.4,566.9,187.3z"/>
</g>
</svg>
