<svg xmlns="http://www.w3.org/2000/svg" xmlns:xlink="http://www.w3.org/1999/xlink" width="841" height="283"><g transform="translate(5 14)"><path d="M824 69H7M823.97 69H825M7.03 69H6M824 195L7 197M823.97 195H825M7.03 197H6" stroke="#000" stroke-width="2" fill="none"/><path d="M69 257V7M69 256.97V258M69 7.03V6M718 257V7M718 256.97V258M718 7.03V6M82 257V7M82 256.97V258M82 7.03V6M340 257V7M340 256.97V258M340 7.03V6M391 257V7M391 256.97V258M391 7.03V6M403 257V7M403 256.97V258M403 7.03V6M624 257V7M624 256.97V258M624 7.03V6M674 257V7M674 256.97V258M674 7.03V6M687 257V7M687 256.97V258M687 7.03V6M769 257V7M769 256.97V258M769 7.03V6" stroke="#a5a5a5" stroke-width="2" fill="none"/><path d="M82 44h258v25H82zM69 170h271v25H69zM391 170h233v25H391zM403 44h220v25H403zM674 170h44v25h-44zM687 44h31v25h-31z" stroke="#000" stroke-width="2" fill="#fff" fill-opacity="0"/><path d="M481 107h62v69h-62z" stroke="#000" stroke-opacity="0" stroke-width="2" fill="#fff" fill-opacity="0"/><use xlink:href="#a" transform="matrix(1,0,0,1,481,107) translate(12.223958333333332 32.35590277777778)"/><use xlink:href="#b" transform="matrix(1,0,0,1,481,107) translate(11.724826388888886 48.80555555555556)"/><path d="M132 107h89v69h-89z" stroke="#000" stroke-opacity="0" stroke-width="2" fill="#fff" fill-opacity="0"/><use xlink:href="#c" transform="matrix(1,0,0,1,132,107) translate(11.895833333333329 32.35590277777778)"/><use xlink:href="#d" transform="matrix(1,0,0,1,132,107) translate(25.224826388888886 48.80555555555556)"/><path d="M675 107h51v69h-51z" stroke="#000" stroke-opacity="0" stroke-width="2" fill="#fff" fill-opacity="0"/><use xlink:href="#e" transform="matrix(1,0,0,1,675,107) translate(13.64236111111111 32.35590277777778)"/><use xlink:href="#f" transform="matrix(1,0,0,1,675,107) translate(11.168402777777779 48.80555555555556)"/><path d="M26 18h47v51H26z" stroke="#000" stroke-opacity="0" stroke-width="2" fill="#fff" fill-opacity="0"/><use xlink:href="#g" transform="matrix(1,0,0,1,26,18) translate(11.157335069444443 33.10091145833333)"/><path d="M18 144h51v51H18z" stroke="#000" stroke-opacity="0" stroke-width="2" fill="#fff" fill-opacity="0"/><use xlink:href="#h" transform="matrix(1,0,0,1,18,144) translate(11.920355902777779 33.10091145833333)"/><path d="M344 112h42v38h-42z" stroke="#000" stroke-opacity="0" stroke-width="2" fill="#fff" fill-opacity="0"/><use xlink:href="#i" transform="matrix(1,0,0,1,344,112) translate(12.04275173611111 22.800455729166664)"/><path d="M376.62 137.3l-20.24.4" stroke="#000" fill="none"/><path d="M391.38 137.03l-14.17 4.9-.17-9.26zM341.62 137.97l14.17-4.9.17 9.26z" stroke="#000"/><path d="M628 112h42v38h-42z" stroke="#000" stroke-opacity="0" stroke-width="2" fill="#fff" fill-opacity="0"/><use xlink:href="#i" transform="matrix(1,0,0,1,628,112) translate(12.04275173611111 22.800455729166664)"/><path d="M660.62 137.3l-20.24.4" stroke="#000" fill="none"/><path d="M675.38 137.03l-14.17 4.9-.17-9.26zM625.62 137.97l14.17-4.9.17 9.26z" stroke="#000"/><path d="M722 112h42v38h-42z" stroke="#000" stroke-opacity="0" stroke-width="2" fill="#fff" fill-opacity="0"/><use xlink:href="#i" transform="matrix(1,0,0,1,722,112) translate(12.04275173611111 22.800455729166664)"/><path d="M754.62 137.3l-20.24.4" stroke="#000" fill="none"/><path d="M769.38 137.03l-14.17 4.9-.17-9.26zM719.62 137.97l14.17-4.9.17 9.26z" stroke="#000"/><path d="M69 38h.5" stroke="#000" fill="none"/><path d="M80.38 37.68l-14.13 5.04-.26-9.27z" stroke="#000"/><path d="M69.5 38H69" stroke="#000" fill="none"/><path d="M54 9h42v38H54z" stroke="#000" stroke-opacity="0" stroke-width="2" fill="#fff" fill-opacity="0"/><use xlink:href="#j" transform="matrix(1,0,0,1,54,9) translate(12.04275173611111 22.800455729166664)"/><path d="M391 38h.5" stroke="#000" fill="none"/><path d="M401.38 38l-14.26 4.64v-9.28z" stroke="#000"/><path d="M391.5 38h-.5" stroke="#000" fill="none"/><path d="M376 6h42v38h-42z" stroke="#000" stroke-opacity="0" stroke-width="2" fill="#fff" fill-opacity="0"/><use xlink:href="#j" transform="matrix(1,0,0,1,376,6) translate(12.04275173611111 22.800455729166664)"/><path d="M674 38h.5" stroke="#000" fill="none"/><path d="M685.38 38l-14.26 4.64v-9.28z" stroke="#000"/><path d="M674.5 38h-.5" stroke="#000" fill="none"/><path d="M659 6h42v38h-42z" stroke="#000" stroke-opacity="0" stroke-width="2" fill="#fff" fill-opacity="0"/><use xlink:href="#j" transform="matrix(1,0,0,1,659,6) translate(12.04275173611111 22.800455729166664)"/><path d="M449.18 101.5H85.38v-1h363.8zm303.44 0H533.8v-1h218.82zM767.38 101l-14.26 4.64v-9.28z"/><path d="M769 101l-16.38 5.32V95.68zm-15.38 3.95l12.14-3.95-12.14-3.95zM84.88 105.64L70.62 101l14.26-4.64z"/><path d="M85.38 106.32L69 101l16.38-5.32zM72.24 101l12.14 3.95v-7.9z"/><g><use xlink:href="#k" transform="matrix(1,0,0,1,449.1781850498933,95.85948350694444) translate(0.005000000000002558 8.940972222222221)"/><use xlink:href="#l" transform="matrix(1,0,0,1,449.1781850498933,95.85948350694444) translate(54.350703125 8.940972222222221)"/></g><defs><path d="M634-1409c461-4 751 239 747 690-4 441-249 719-686 719H168v-1409h466zm39 1256c337-8 514-222 516-566 2-353-203-539-559-537H359v1103h314" id="m"/><path d="M797-207C713-60 620 16 414 20 203 24 88-98 87-302c0-112 37-198 111-258s192-93 356-96l243-4c10-201-43-307-232-305-154 2-223 43-242 172l-188-17c31-195 175-292 434-292s410 116 410 364v466c3 95 12 159 101 161 17 0 37-2 59-7V-6c-45 11-92 16-139 16-143-2-188-76-197-217h-6zm-525-92c-1 116 66 187 183 184 230-7 361-164 342-419-124 5-305-2-389 30-83 32-136 92-136 205" id="n"/><path d="M336-268c2 98 22 139 114 141 24 0 59-5 104-14V-8C495 8 434 16 372 16c-144 0-216-82-216-245v-722H31v-131h132l53-242h120v242h200v131H336v683" id="o"/><g id="a"><use transform="matrix(0.008680555555555556,0,0,0.008680555555555556,0,0)" xlink:href="#m"/><use transform="matrix(0.008680555555555556,0,0,0.008680555555555556,12.838541666666668,0)" xlink:href="#n"/><use transform="matrix(0.008680555555555556,0,0,0.008680555555555556,22.725694444444446,0)" xlink:href="#o"/><use transform="matrix(0.008680555555555556,0,0,0.008680555555555556,27.664930555555557,0)" xlink:href="#n"/></g><path d="M765-739c171 25 285 155 285 346-1 274-191 413-480 413C286 20 89-117 89-391c0-183 123-323 281-346v-4c-143-30-248-160-248-328 1-229 198-361 444-361 254 0 448 125 449 363 1 166-104 300-250 324v4zm-197-70c171-2 261-74 260-248 0-159-87-239-262-239-165 0-260 77-260 239 0 163 99 249 262 248zm4 694c200 0 291-92 291-295 1-179-116-264-297-264-175 0-292 98-291 268 0 194 99 291 297 291" id="p"/><path d="M715-719c191 17 334 134 334 330 0 274-191 409-478 409-283 0-463-130-493-382l186-17c24 167 126 250 307 250 177 0 294-88 291-266-3-174-149-246-344-244H416v-156h98c179 2 311-77 311-243 0-157-98-244-264-244-159 0-264 88-278 233l-181-14c23-229 206-367 461-367 262 0 447 124 447 373 0 197-120 298-295 334v4" id="q"/><path d="M476 20C225 20 133-99 133-361v-721h181v686c0 183 40 279 223 277 184-2 280-141 280-336v-627h180c3 345-6 754 6 1082H833c-5-68-6-94-8-185h-3C746-51 665 20 476 20" id="r"/><path d="M513-963c-139 1-238 29-238 149 0 72 41 100 95 127 55 27 348 94 404 125 101 56 176 118 176 263C950-73 758 21 511 20 254 19 107-55 57-254l159-31c34 123 133 168 295 168 156 0 264-34 264-168 0-156-183-165-315-204-171-51-245-68-323-172-26-35-37-82-37-135 0-220 172-304 413-303 232 1 379 74 418 265l-162 20c-23-104-122-150-256-149" id="s"/><g id="b"><use transform="matrix(0.008680555555555556,0,0,0.008680555555555556,0,0)" xlink:href="#p"/><use transform="matrix(0.008680555555555556,0,0,0.008680555555555556,9.887152777777779,0)" xlink:href="#q"/><use transform="matrix(0.008680555555555556,0,0,0.008680555555555556,19.774305555555557,0)" xlink:href="#r"/><use transform="matrix(0.008680555555555556,0,0,0.008680555555555556,29.661458333333336,0)" xlink:href="#s"/></g><path d="M908-743c202 21 350 139 350 346 0 273-224 397-518 397H168v-1409h512c331 0 496 114 496 342 0 180-112 291-268 324zm-228-67c187 0 301-60 304-234 6-277-360-200-625-212v446h321zm50 657c212 0 335-66 335-259 0-166-117-249-350-249H359v508h371" id="t"/><path d="M359-1253v524h786v158H359V0H168v-1409h1001v156H359" id="u"/><path d="M0 20l411-1504h158L162 20H0" id="v"/><g id="c"><use transform="matrix(0.008680555555555556,0,0,0.008680555555555556,0,0)" xlink:href="#t"/><use transform="matrix(0.008680555555555556,0,0,0.008680555555555556,11.85763888888889,0)" xlink:href="#u"/><use transform="matrix(0.008680555555555556,0,0,0.008680555555555556,22.71701388888889,0)" xlink:href="#v"/><use transform="matrix(0.008680555555555556,0,0,0.008680555555555556,27.65625,0)" xlink:href="#m"/><use transform="matrix(0.008680555555555556,0,0,0.008680555555555556,40.49479166666667,0)" xlink:href="#n"/><use transform="matrix(0.008680555555555556,0,0,0.008680555555555556,50.38194444444445,0)" xlink:href="#o"/><use transform="matrix(0.008680555555555556,0,0,0.008680555555555556,55.321180555555564,0)" xlink:href="#n"/></g><path d="M625-911c261-2 424 185 424 450 0 289-169 481-455 481-159 0-280-59-364-177S104-447 104-672c0-244 44-431 131-562s212-196 373-196c213 0 347 96 402 287l-172 31c-35-115-113-172-232-172-103 0-182 48-238 144s-85 234-85 415c59-113 178-184 342-186zm-37 786c182 0 278-138 278-328 0-193-98-318-284-319-166-1-281 107-281 276 0 195 106 371 287 371" id="w"/><g id="d"><use transform="matrix(0.008680555555555556,0,0,0.008680555555555556,0,0)" xlink:href="#p"/><use transform="matrix(0.008680555555555556,0,0,0.008680555555555556,9.887152777777779,0)" xlink:href="#w"/><use transform="matrix(0.008680555555555556,0,0,0.008680555555555556,19.774305555555557,0)" xlink:href="#r"/><use transform="matrix(0.008680555555555556,0,0,0.008680555555555556,29.661458333333336,0)" xlink:href="#s"/></g><path d="M1167 0l-161-412H364L202 0H4l575-1409h217L1362 0h-195zM685-1265c-69 226-179 482-263 704h527c-89-236-186-456-264-704" id="x"/><g id="e"><use transform="matrix(0.008680555555555556,0,0,0.008680555555555556,0,0)" xlink:href="#t"/><use transform="matrix(0.008680555555555556,0,0,0.008680555555555556,11.85763888888889,0)" xlink:href="#x"/></g><path d="M1036-1263c-144 220-246 392-305 517C626-522 556-302 553 0H365c0-180 39-369 115-568s203-429 382-688H105v-153h931v146" id="y"/><g id="f"><use transform="matrix(0.008680555555555556,0,0,0.008680555555555556,0,0)" xlink:href="#y"/><use transform="matrix(0.008680555555555556,0,0,0.008680555555555556,9.887152777777779,0)" xlink:href="#r"/><use transform="matrix(0.008680555555555556,0,0,0.008680555555555556,19.774305555555557,0)" xlink:href="#s"/></g><path d="M720-1253V0H530v-1253H46v-156h1158v156H720" id="z"/><path d="M801 0L510-444 217 0H23l385-556-367-526h199l270 421 268-421h201L612-558 1002 0H801" id="A"/><g id="g"><use transform="matrix(0.010850694444444444,0,0,0.010850694444444444,0,0)" xlink:href="#z"/><use transform="matrix(0.010850694444444444,0,0,0.010850694444444444,13.57421875,0)" xlink:href="#A"/></g><path d="M1328-1006c0 221-145 368-344 399L1384 0h-220L798-585H359V0H168v-1409h663c292-4 497 130 497 403zM820-736c188 2 316-89 316-268s-133-252-324-252H359v520h461" id="B"/><g id="h"><use transform="matrix(0.010850694444444444,0,0,0.010850694444444444,0,0)" xlink:href="#B"/><use transform="matrix(0.010850694444444444,0,0,0.010850694444444444,16.048177083333332,0)" xlink:href="#A"/></g><g id="i"><use transform="matrix(0.005425347222222222,0,0,0.005425347222222222,0,0)" xlink:href="#p"/><use transform="matrix(0.005425347222222222,0,0,0.005425347222222222,6.179470486111111,0)" xlink:href="#r"/><use transform="matrix(0.005425347222222222,0,0,0.005425347222222222,12.358940972222221,0)" xlink:href="#s"/></g><path d="M572-1430c269 0 442 128 442 386 0 144-72 232-149 325-108 130-487 366-564 566h735V0H103v-127c119-285 378-432 583-627 76-72 141-150 143-284 1-156-100-244-257-244-156 0-263 93-277 238l-184-17c24-224 208-369 461-369" id="C"/><g id="j"><use transform="matrix(0.005425347222222222,0,0,0.005425347222222222,0,0)" xlink:href="#C"/><use transform="matrix(0.005425347222222222,0,0,0.005425347222222222,6.179470486111111,0)" xlink:href="#r"/><use transform="matrix(0.005425347222222222,0,0,0.005425347222222222,12.358940972222221,0)" xlink:href="#s"/></g><path d="M692-1286c-195 0-347 51-347 223 0 101 58 144 134 179 135 62 487 105 623 191 97 62 170 147 170 304 0 130-50 231-152 302S875 20 690 20C347 20 148-99 93-338l185-37c46 178 190 245 419 246 213 0 386-61 386-250 0-223-244-222-431-271-182-48-288-69-390-156-64-54-103-133-103-247 0-121 47-214 139-279s224-98 396-98c318 0 471 80 545 324l-188 33c-44-155-158-213-359-213" id="D"/><path d="M655-1102c307 0 398 221 398 556 0 377-133 566-398 566-180 0-272-66-339-188 1 22-7 151-10 168H132c4-36 6-110 6-223v-1261h180c-2 196 4 384-4 576h4c62-129 158-194 337-194zM318-529c0 254 57 416 289 416 91 0 152-37 197-101 76-109 76-543 0-651-44-63-105-98-195-98-236 0-291 169-291 434" id="E"/><path d="M492-1341c-103 3-130 49-131 162v97h211v131H361V0H181v-951H29v-131h152v-122c0-192 78-276 264-278 50 0 92 4 127 12v137c-30-5-57-8-80-8" id="F"/><path d="M318-861c55-157 83-241 257-241 24 0 48 3 73 10v165c-24-7-56-10-96-10-75 0-132 33-171 97s-59 156-59 276V0H142c-3-364 6-725-6-1082h170c5 123 8 196 8 221h4" id="G"/><path d="M1195-963c-175 0-249 144-249 336V0H768v-686c-5-190-26-277-198-277-171 0-249 147-249 336V0H142c-3-345 6-754-6-1082h170c5 68 6 94 8 185h3c69-134 140-205 316-205 171 0 257 66 294 205h3c67-129 152-205 328-205 238 0 313 127 313 381V0h-178v-686c-5-190-26-277-198-277" id="H"/><path d="M87-548c0-338 159-553 484-554 325-2 484 204 477 599H276c-1 227 88 385 302 388 146 2 246-65 283-166l158 45C954-65 807 20 578 20 240 20 87-193 87-548zm775-93c-19-206-90-328-294-328-185 0-285 140-290 328h584" id="I"/><path d="M385-51c0 144-24 223-78 313H184c63-91 94-178 94-262h-88v-219h195v168" id="J"/><g id="k"><use transform="matrix(0.005425347222222222,0,0,0.005425347222222222,0,0)" xlink:href="#D"/><use transform="matrix(0.005425347222222222,0,0,0.005425347222222222,7.411024305555555,0)" xlink:href="#r"/><use transform="matrix(0.005425347222222222,0,0,0.005425347222222222,13.590494791666666,0)" xlink:href="#E"/><use transform="matrix(0.005425347222222222,0,0,0.005425347222222222,19.76996527777778,0)" xlink:href="#F"/><use transform="matrix(0.005425347222222222,0,0,0.005425347222222222,22.85698784722222,0)" xlink:href="#G"/><use transform="matrix(0.005425347222222222,0,0,0.005425347222222222,26.55707465277778,0)" xlink:href="#n"/><use transform="matrix(0.005425347222222222,0,0,0.005425347222222222,32.736545138888886,0)" xlink:href="#H"/><use transform="matrix(0.005425347222222222,0,0,0.005425347222222222,41.9921875,0)" xlink:href="#I"/><use transform="matrix(0.005425347222222222,0,0,0.005425347222222222,48.17165798611111,0)" xlink:href="#J"/></g><path d="M1059-705c0 235-42 415-125 539S729 20 567 20 283-42 202-165 80-468 80-705c0-242 39-423 118-544s204-181 375-181c166 0 288 61 367 183s119 303 119 542zM802-269c94-156 93-724 4-878-51-89-125-137-233-137-111 0-186 48-239 135-91 149-91 731 2 883 55 89 126 139 233 139 106 0 178-51 233-142" id="K"/><g id="l"><use transform="matrix(0.005425347222222222,0,0,0.005425347222222222,0,0)" xlink:href="#C"/><use transform="matrix(0.005425347222222222,0,0,0.005425347222222222,6.179470486111111,0)" xlink:href="#K"/><use transform="matrix(0.005425347222222222,0,0,0.005425347222222222,12.358940972222221,0)" xlink:href="#K"/><use transform="matrix(0.005425347222222222,0,0,0.005425347222222222,18.538411458333332,0)" xlink:href="#r"/><use transform="matrix(0.005425347222222222,0,0,0.005425347222222222,24.717881944444443,0)" xlink:href="#s"/></g></defs></g></svg>
