<?xml version="1.0" encoding="UTF-8" standalone="no"?>
<!DOCTYPE svg PUBLIC "-//W3C//DTD SVG 1.1//EN"
 "http://www.w3.org/Graphics/SVG/1.1/DTD/svg11.dtd">
<!-- Generated by graphviz version 2.40.1 (20161225.0304)
 -->
<!-- Title: tgcfg Pages: 1 -->
<svg width="540pt" height="669pt"
 viewBox="0.00 0.00 540.00 668.90" xmlns="http://www.w3.org/2000/svg" xmlns:xlink="http://www.w3.org/1999/xlink">
<g id="graph0" class="graph" transform="scale(.5471 .5471) rotate(0) translate(4 1218.6)">
<title>tgcfg</title>
<polygon fill="#ffffff" stroke="transparent" points="-4,4 -4,-1218.6 983,-1218.6 983,4 -4,4"/>
<g id="clust1" class="cluster">
<title>cluster_dpdk_rx</title>
<polygon fill="none" stroke="#000000" points="108,-1105.8 108,-1206.6 474,-1206.6 474,-1105.8 108,-1105.8"/>
<text text-anchor="middle" x="291" y="-1190" font-family="Times,serif" font-size="14.00" fill="#000000">DPDK RX</text>
</g>
<g id="clust2" class="cluster">
<title>cluster_slowpath_from_kernel</title>
<polygon fill="none" stroke="#000000" points="510,-1105.8 510,-1206.6 748,-1206.6 748,-1105.8 510,-1105.8"/>
<text text-anchor="middle" x="629" y="-1190" font-family="Times,serif" font-size="14.00" fill="#000000">Packets from kernel</text>
</g>
<g id="clust3" class="cluster">
<title>cluster_dpdk_tx</title>
<polygon fill="none" stroke="#000000" points="757,-297.6 757,-374.4 950,-374.4 950,-297.6 757,-297.6"/>
<text text-anchor="middle" x="853.5" y="-357.8" font-family="Times,serif" font-size="14.00" fill="#000000">DPDK TX</text>
</g>
<g id="clust4" class="cluster">
<title>cluster_slowpath_to_kernel</title>
<polygon fill="none" stroke="#000000" points="757,-113 757,-189.8 971,-189.8 971,-113 757,-113"/>
<text text-anchor="middle" x="864" y="-173.2" font-family="Times,serif" font-size="14.00" fill="#000000">Packets to kernel</text>
</g>
<g id="clust5" class="cluster">
<title>cluster_vpp</title>
<polygon fill="none" stroke="#000000" points="8,-8 8,-1088.8 725,-1088.8 725,-8 8,-8"/>
<text text-anchor="middle" x="366.5" y="-1072.2" font-family="Times,serif" font-size="14.00" fill="#000000">VPP</text>
</g>
<!-- baseband_rx -->
<g id="node1" class="node">
<title>baseband_rx</title>
<polygon fill="none" stroke="#000000" points="276.2021,-1161.8 127.7979,-1161.8 127.7979,-1125.8 276.2021,-1125.8 276.2021,-1161.8"/>
<text text-anchor="middle" x="202" y="-1139.6" font-family="Times,serif" font-size="14.00" fill="#000000">Wigig RX (dpdk&#45;input)</text>
</g>
<!-- tg_link_input -->
<g id="node20" class="node">
<title>tg_link_input</title>
<ellipse fill="none" stroke="#000000" cx="194" cy="-1006" rx="59.7109" ry="18"/>
<text text-anchor="middle" x="194" y="-1001.8" font-family="Times,serif" font-size="14.00" fill="#000000">tg&#45;link&#45;input</text>
</g>
<!-- baseband_rx&#45;&gt;tg_link_input -->
<g id="edge1" class="edge">
<title>baseband_rx&#45;&gt;tg_link_input</title>
<path fill="none" stroke="#000000" d="M194,-1125.7851C194,-1125.7851 194,-1034.0194 194,-1034.0194"/>
<polygon fill="#000000" stroke="#000000" points="197.5001,-1034.0193 194,-1024.0194 190.5001,-1034.0194 197.5001,-1034.0193"/>
<text text-anchor="middle" x="115.6602" y="-1028.2194" font-family="Times,serif" font-size="14.00" fill="#000000">device&#45;input (Wigig0/x/y/z)</text>
</g>
<!-- ethernet_rx -->
<g id="node2" class="node">
<title>ethernet_rx</title>
<polygon fill="none" stroke="#000000" points="454.1302,-1161.8 293.8698,-1161.8 293.8698,-1125.8 454.1302,-1125.8 454.1302,-1161.8"/>
<text text-anchor="middle" x="374" y="-1139.6" font-family="Times,serif" font-size="14.00" fill="#000000">Ethernet RX (dpdk&#45;input)</text>
</g>
<!-- ethernet_input_wired -->
<g id="node28" class="node">
<title>ethernet_input_wired</title>
<ellipse fill="none" stroke="#000000" cx="451" cy="-895" rx="143.4573" ry="18"/>
<text text-anchor="middle" x="451" y="-890.8" font-family="Times,serif" font-size="14.00" fill="#000000">ethernet&#45;input (TenGigEthernetX)</text>
</g>
<!-- ethernet_rx&#45;&gt;ethernet_input_wired -->
<g id="edge13" class="edge">
<title>ethernet_rx&#45;&gt;ethernet_input_wired</title>
<path fill="none" stroke="#000000" d="M315.3708,-1125.5051C315.3708,-1125.5051 315.3708,-910.8328 315.3708,-910.8328"/>
<polygon fill="#000000" stroke="#000000" points="318.8709,-910.8328 315.3708,-900.8328 311.8709,-910.8328 318.8709,-910.8328"/>
<text text-anchor="middle" x="406.9168" y="-905.0328" font-family="Times,serif" font-size="14.00" fill="#000000">device&#45;input (TenGigEthernetX)</text>
</g>
<!-- kernel_tapX_rx -->
<g id="node3" class="node">
<title>kernel_tapX_rx</title>
<polygon fill="none" stroke="#000000" points="656,-1161.8 602,-1161.8 602,-1125.8 656,-1125.8 656,-1161.8"/>
<text text-anchor="middle" x="629" y="-1139.6" font-family="Times,serif" font-size="14.00" fill="#000000">nicX</text>
</g>
<!-- tg_wired_local_rx -->
<g id="node26" class="node">
<title>tg_wired_local_rx</title>
<ellipse fill="none" stroke="#000000" cx="558" cy="-1006" rx="76.9811" ry="18"/>
<text text-anchor="middle" x="558" y="-1001.8" font-family="Times,serif" font-size="14.00" fill="#000000">tg&#45;wired&#45;local&#45;rx</text>
</g>
<!-- kernel_tapX_rx&#45;&gt;tg_wired_local_rx -->
<g id="edge19" class="edge">
<title>kernel_tapX_rx&#45;&gt;tg_wired_local_rx</title>
<path fill="none" stroke="#000000" d="M618.4953,-1125.7851C618.4953,-1125.7851 618.4953,-1027.211 618.4953,-1027.211"/>
<polygon fill="#000000" stroke="#000000" points="621.9954,-1027.211 618.4953,-1017.211 614.9954,-1027.2111 621.9954,-1027.211"/>
<text text-anchor="middle" x="594.7842" y="-1113.1851" font-family="Times,serif" font-size="14.00" fill="#000000">tapcli&#45;rx</text>
</g>
<!-- kernel_terraX_rx -->
<g id="node4" class="node">
<title>kernel_terraX_rx</title>
<polygon fill="none" stroke="#000000" points="584,-1161.8 530,-1161.8 530,-1125.8 584,-1125.8 584,-1161.8"/>
<text text-anchor="middle" x="557" y="-1139.6" font-family="Times,serif" font-size="14.00" fill="#000000">terraX</text>
</g>
<!-- tg_link_local_rx -->
<g id="node24" class="node">
<title>tg_link_local_rx</title>
<ellipse fill="none" stroke="#000000" cx="393" cy="-1006" rx="70.0596" ry="18"/>
<text text-anchor="middle" x="393" y="-1001.8" font-family="Times,serif" font-size="14.00" fill="#000000">tg&#45;link&#45;local&#45;rx</text>
</g>
<!-- kernel_terraX_rx&#45;&gt;tg_link_local_rx -->
<g id="edge20" class="edge">
<title>kernel_terraX_rx&#45;&gt;tg_link_local_rx</title>
<path fill="none" stroke="#000000" d="M529.8713,-1143C500.7669,-1143 458.6724,-1143 458.6724,-1143 458.6724,-1143 458.6724,-1022.6078 458.6724,-1022.6078"/>
<polygon fill="#000000" stroke="#000000" points="462.1725,-1022.6078 458.6724,-1012.6078 455.1725,-1022.6078 462.1725,-1022.6078"/>
<text text-anchor="middle" x="503.041" y="-1147.2" font-family="Times,serif" font-size="14.00" fill="#000000">dpdk&#45;dhd</text>
</g>
<!-- kernel_vnet0_tx -->
<g id="node5" class="node">
<title>kernel_vnet0_tx</title>
<polygon fill="none" stroke="#000000" points="728,-1161.8 674,-1161.8 674,-1125.8 728,-1125.8 728,-1161.8"/>
<text text-anchor="middle" x="701" y="-1139.6" font-family="Times,serif" font-size="14.00" fill="#000000">vnet0</text>
</g>
<!-- vpp_vnet0_rx -->
<g id="node12" class="node">
<title>vpp_vnet0_rx</title>
<polygon fill="none" stroke="#000000" points="685.2662,-913 612.7338,-913 612.7338,-877 685.2662,-877 685.2662,-913"/>
<text text-anchor="middle" x="649" y="-890.8" font-family="Times,serif" font-size="14.00" fill="#000000">vpp&#45;vnet0</text>
</g>
<!-- kernel_vnet0_tx&#45;&gt;vpp_vnet0_rx -->
<g id="edge27" class="edge">
<title>kernel_vnet0_tx&#45;&gt;vpp_vnet0_rx</title>
<path fill="none" stroke="#000000" d="M679.6915,-1125.5051C679.6915,-1125.5051 679.6915,-923.3217 679.6915,-923.3217"/>
<polygon fill="#000000" stroke="#000000" points="683.1915,-923.3216 679.6915,-913.3217 676.1915,-923.3217 683.1915,-923.3216"/>
<text text-anchor="middle" x="655.9804" y="-1112.9051" font-family="Times,serif" font-size="14.00" fill="#000000">tapcli&#45;rx</text>
</g>
<!-- baseband_tx -->
<g id="node6" class="node">
<title>baseband_tx</title>
<polygon fill="none" stroke="#000000" points="838.6552,-341.6 765.3448,-341.6 765.3448,-305.6 838.6552,-305.6 838.6552,-341.6"/>
<text text-anchor="middle" x="802" y="-319.4" font-family="Times,serif" font-size="14.00" fill="#000000">Wigig TX</text>
</g>
<!-- ethernet_tx -->
<g id="node7" class="node">
<title>ethernet_tx</title>
<polygon fill="none" stroke="#000000" points="941.5838,-341.6 856.4162,-341.6 856.4162,-305.6 941.5838,-305.6 941.5838,-341.6"/>
<text text-anchor="middle" x="899" y="-319.4" font-family="Times,serif" font-size="14.00" fill="#000000">Ethernet TX</text>
</g>
<!-- kernel_tapX_tx -->
<g id="node8" class="node">
<title>kernel_tapX_tx</title>
<polygon fill="none" stroke="#000000" points="891,-157 837,-157 837,-121 891,-121 891,-157"/>
<text text-anchor="middle" x="864" y="-134.8" font-family="Times,serif" font-size="14.00" fill="#000000">nicX</text>
</g>
<!-- kernel_terraX_tx -->
<g id="node9" class="node">
<title>kernel_terraX_tx</title>
<polygon fill="none" stroke="#000000" points="819,-157 765,-157 765,-121 819,-121 819,-157"/>
<text text-anchor="middle" x="792" y="-134.8" font-family="Times,serif" font-size="14.00" fill="#000000">terraX</text>
</g>
<!-- kernel_vnet0_rx -->
<g id="node10" class="node">
<title>kernel_vnet0_rx</title>
<polygon fill="none" stroke="#000000" points="963,-157 909,-157 909,-121 963,-121 963,-157"/>
<text text-anchor="middle" x="936" y="-134.8" font-family="Times,serif" font-size="14.00" fill="#000000">vnet0</text>
</g>
<!-- local_iface -->
<g id="node11" class="node">
<title>local_iface</title>
<polygon fill="none" stroke="#000000" points="380.2124,-84 305.7876,-84 305.7876,-48 380.2124,-48 380.2124,-84"/>
<text text-anchor="middle" x="343" y="-61.8" font-family="Times,serif" font-size="14.00" fill="#000000">loop[0,1..]</text>
</g>
<!-- vpp_ip6_input -->
<g id="node17" class="node">
<title>vpp_ip6_input</title>
<ellipse fill="none" stroke="#000000" cx="451" cy="-768.2" rx="46.3894" ry="18"/>
<text text-anchor="middle" x="451" y="-764" font-family="Times,serif" font-size="14.00" fill="#000000">ip6&#45;input</text>
</g>
<!-- vpp_vnet0_rx&#45;&gt;vpp_ip6_input -->
<g id="edge28" class="edge">
<title>vpp_vnet0_rx&#45;&gt;vpp_ip6_input</title>
<path fill="none" stroke="#000000" d="M648.8694,-876.804C648.8694,-841.6874 648.8694,-768 648.8694,-768 648.8694,-768 507.6417,-768 507.6417,-768"/>
<polygon fill="#000000" stroke="#000000" points="507.6418,-764.5001 497.6417,-768 507.6417,-771.5001 507.6418,-764.5001"/>
<text text-anchor="middle" x="594.2216" y="-827.4" font-family="Times,serif" font-size="14.00" fill="#000000">IPv6</text>
</g>
<!-- vpp_vnet0_tx -->
<g id="node13" class="node">
<title>vpp_vnet0_tx</title>
<polygon fill="none" stroke="#000000" points="538.2662,-437.4 465.7338,-437.4 465.7338,-401.4 538.2662,-401.4 538.2662,-437.4"/>
<text text-anchor="middle" x="502" y="-415.2" font-family="Times,serif" font-size="14.00" fill="#000000">vpp&#45;vnet0</text>
</g>
<!-- vpp_vnet0_tx&#45;&gt;kernel_vnet0_rx -->
<g id="edge29" class="edge">
<title>vpp_vnet0_tx&#45;&gt;kernel_vnet0_rx</title>
<path fill="none" stroke="#000000" d="M502,-401.3326C502,-363.4128 502,-279 502,-279 502,-279 925.3957,-279 925.3957,-279 925.3957,-279 925.3957,-167.0159 925.3957,-167.0159"/>
<polygon fill="#000000" stroke="#000000" points="928.8958,-167.0159 925.3957,-157.0159 921.8958,-167.016 928.8958,-167.0159"/>
<text text-anchor="middle" x="677.3261" y="-275" font-family="Times,serif" font-size="14.00" fill="#000000">tapcli&#45;tx</text>
</g>
<!-- vpp_terra_tx -->
<g id="node14" class="node">
<title>vpp_terra_tx</title>
<ellipse fill="none" stroke="#000000" cx="621" cy="-419.4" rx="64.2436" ry="18"/>
<text text-anchor="middle" x="621" y="-415.2" font-family="Times,serif" font-size="14.00" fill="#000000">vpp&#45;terraX&#45;tx</text>
</g>
<!-- vpp_terra_tx&#45;&gt;baseband_tx -->
<g id="edge25" class="edge">
<title>vpp_terra_tx&#45;&gt;baseband_tx</title>
<path fill="none" stroke="#000000" d="M651.7906,-403.4815C651.7906,-376.1012 651.7906,-323 651.7906,-323 651.7906,-323 755.2546,-323 755.2546,-323"/>
<polygon fill="#000000" stroke="#000000" points="755.2547,-326.5001 765.2546,-323 755.2546,-319.5001 755.2547,-326.5001"/>
</g>
<!-- lookup_local -->
<g id="node15" class="node">
<title>lookup_local</title>
<polygon fill="none" stroke="#000000" points="451,-675.2 398.4753,-657.2 451,-639.2 503.5247,-657.2 451,-675.2"/>
<text text-anchor="middle" x="451" y="-653" font-family="Times,serif" font-size="14.00" fill="#000000">Local?</text>
</g>
<!-- lookup -->
<g id="node16" class="node">
<title>lookup</title>
<ellipse fill="none" stroke="#000000" cx="550" cy="-546.2" rx="53.336" ry="18"/>
<text text-anchor="middle" x="550" y="-542" font-family="Times,serif" font-size="14.00" fill="#000000">ip6&#45;lookup</text>
</g>
<!-- lookup_local&#45;&gt;lookup -->
<g id="edge12" class="edge">
<title>lookup_local&#45;&gt;lookup</title>
<path fill="none" stroke="#000000" d="M500.1719,-655.9534C500.1719,-655.9534 500.1719,-562.9557 500.1719,-562.9557"/>
<polygon fill="#000000" stroke="#000000" points="503.672,-562.9557 500.1719,-552.9557 496.672,-562.9557 503.672,-562.9557"/>
<text text-anchor="middle" x="491.6186" y="-613.6546" font-family="Times,serif" font-size="14.00" fill="#000000">No</text>
</g>
<!-- vpp_ip6_local -->
<g id="node18" class="node">
<title>vpp_ip6_local</title>
<ellipse fill="none" stroke="#000000" cx="355" cy="-546.2" rx="45.2227" ry="18"/>
<text text-anchor="middle" x="355" y="-542" font-family="Times,serif" font-size="14.00" fill="#000000">ip6&#45;local</text>
</g>
<!-- lookup_local&#45;&gt;vpp_ip6_local -->
<g id="edge11" class="edge">
<title>lookup_local&#45;&gt;vpp_ip6_local</title>
<path fill="none" stroke="#000000" d="M423.9589,-648.1C423.9589,-621.5422 423.9589,-546 423.9589,-546 423.9589,-546 410.6125,-546 410.6125,-546"/>
<polygon fill="#000000" stroke="#000000" points="410.6126,-542.5001 400.6125,-546 410.6125,-549.5001 410.6126,-542.5001"/>
<text text-anchor="middle" x="414.6293" y="-594.5769" font-family="Times,serif" font-size="14.00" fill="#000000">yes</text>
</g>
<!-- lookup&#45;&gt;ethernet_tx -->
<g id="edge23" class="edge">
<title>lookup&#45;&gt;ethernet_tx</title>
<path fill="none" stroke="#000000" d="M603.7812,-546C698.4033,-546 884.7362,-546 884.7362,-546 884.7362,-546 884.7362,-351.7999 884.7362,-351.7999"/>
<polygon fill="#000000" stroke="#000000" points="888.2363,-351.7999 884.7362,-341.7999 881.2363,-351.8 888.2363,-351.7999"/>
</g>
<!-- lookup&#45;&gt;vpp_vnet0_tx -->
<g id="edge26" class="edge">
<title>lookup&#45;&gt;vpp_vnet0_tx</title>
<path fill="none" stroke="#000000" d="M517.4825,-531.6544C517.4825,-531.6544 517.4825,-447.4369 517.4825,-447.4369"/>
<polygon fill="#000000" stroke="#000000" points="520.9826,-447.4369 517.4825,-437.4369 513.9826,-447.4369 520.9826,-447.4369"/>
</g>
<!-- lookup&#45;&gt;vpp_terra_tx -->
<g id="edge24" class="edge">
<title>lookup&#45;&gt;vpp_terra_tx</title>
<path fill="none" stroke="#000000" d="M580.1481,-531.1564C580.1481,-531.1564 580.1481,-443.6454 580.1481,-443.6454"/>
<polygon fill="#000000" stroke="#000000" points="583.6482,-443.6454 580.1481,-433.6454 576.6482,-443.6454 583.6482,-443.6454"/>
</g>
<!-- vpp_ip6_input&#45;&gt;lookup_local -->
<g id="edge4" class="edge">
<title>vpp_ip6_input&#45;&gt;lookup_local</title>
<path fill="none" stroke="#000000" d="M451,-749.8706C451,-749.8706 451,-685.5566 451,-685.5566"/>
<polygon fill="#000000" stroke="#000000" points="454.5001,-685.5566 451,-675.5566 447.5001,-685.5567 454.5001,-685.5566"/>
</g>
<!-- tg_slowpath_terra_rx -->
<g id="node21" class="node">
<title>tg_slowpath_terra_rx</title>
<ellipse fill="none" stroke="#000000" cx="156" cy="-419.4" rx="88.0172" ry="18"/>
<text text-anchor="middle" x="156" y="-415.2" font-family="Times,serif" font-size="14.00" fill="#000000">tg&#45;slowpath&#45;terra&#45;rx</text>
</g>
<!-- vpp_ip6_local&#45;&gt;tg_slowpath_terra_rx -->
<g id="edge6" class="edge">
<title>vpp_ip6_local&#45;&gt;tg_slowpath_terra_rx</title>
<path fill="none" stroke="#000000" d="M309.3454,-546C250.5938,-546 156,-546 156,-546 156,-546 156,-447.5387 156,-447.5387"/>
<polygon fill="#000000" stroke="#000000" points="159.5001,-447.5387 156,-437.5387 152.5001,-447.5387 159.5001,-447.5387"/>
<text text-anchor="middle" x="238.121" y="-478.6" font-family="Times,serif" font-size="14.00" fill="#000000">RX: vpp&#45;terraX</text>
</g>
<!-- tg_slowpath_wired_rx -->
<g id="node22" class="node">
<title>tg_slowpath_wired_rx</title>
<ellipse fill="none" stroke="#000000" cx="355" cy="-419.4" rx="92.6132" ry="18"/>
<text text-anchor="middle" x="355" y="-415.2" font-family="Times,serif" font-size="14.00" fill="#000000">tg&#45;slowpath&#45;wired&#45;rx</text>
</g>
<!-- vpp_ip6_local&#45;&gt;tg_slowpath_wired_rx -->
<g id="edge15" class="edge">
<title>vpp_ip6_local&#45;&gt;tg_slowpath_wired_rx</title>
<path fill="none" stroke="#000000" d="M355,-528.0327C355,-528.0327 355,-447.5336 355,-447.5336"/>
<polygon fill="#000000" stroke="#000000" points="358.5001,-447.5336 355,-437.5336 351.5001,-447.5337 358.5001,-447.5336"/>
<text text-anchor="middle" x="384.3531" y="-478.6" font-family="Times,serif" font-size="14.00" fill="#000000">RX: wired</text>
</g>
<!-- vpp_local_receive -->
<g id="node19" class="node">
<title>vpp_local_receive</title>
<ellipse fill="none" stroke="#000000" cx="343" cy="-234.8" rx="88.0403" ry="18"/>
<text text-anchor="middle" x="343" y="-230.6" font-family="Times,serif" font-size="14.00" fill="#000000">VPP only interfaces</text>
</g>
<!-- vpp_local_receive&#45;&gt;local_iface -->
<g id="edge9" class="edge">
<title>vpp_local_receive&#45;&gt;local_iface</title>
<path fill="none" stroke="#000000" d="M343,-216.7354C343,-216.7354 343,-94.1898 343,-94.1898"/>
<polygon fill="#000000" stroke="#000000" points="346.5001,-94.1898 343,-84.1898 339.5001,-94.1898 346.5001,-94.1898"/>
</g>
<!-- ethernet_input_terraX -->
<g id="node27" class="node">
<title>ethernet_input_terraX</title>
<ellipse fill="none" stroke="#000000" cx="173" cy="-895" rx="116.3108" ry="18"/>
<text text-anchor="middle" x="173" y="-890.8" font-family="Times,serif" font-size="14.00" fill="#000000">ethernet&#45;input (vpp&#45;terraX)</text>
</g>
<!-- tg_link_input&#45;&gt;ethernet_input_terraX -->
<g id="edge2" class="edge">
<title>tg_link_input&#45;&gt;ethernet_input_terraX</title>
<path fill="none" stroke="#000000" d="M194,-987.6706C194,-987.6706 194,-922.9883 194,-922.9883"/>
<polygon fill="#000000" stroke="#000000" points="197.5001,-922.9883 194,-912.9883 190.5001,-922.9884 197.5001,-922.9883"/>
</g>
<!-- tg_slowpath_terra_rx&#45;&gt;vpp_local_receive -->
<g id="edge8" class="edge">
<title>tg_slowpath_terra_rx&#45;&gt;vpp_local_receive</title>
<path fill="none" stroke="#000000" d="M244.3225,-419C252.9515,-419 258.5868,-419 258.5868,-419 258.5868,-419 258.5868,-262.8 258.5868,-262.8"/>
<polygon fill="#000000" stroke="#000000" points="262.0869,-262.8 258.5868,-252.8 255.0869,-262.8 262.0869,-262.8"/>
<text text-anchor="middle" x="226.1341" y="-352.2321" font-family="Times,serif" font-size="14.00" fill="#000000">other ifaces</text>
</g>
<!-- tg_link_local_tx -->
<g id="node23" class="node">
<title>tg_link_local_tx</title>
<ellipse fill="none" stroke="#000000" cx="156" cy="-234.8" rx="69.4974" ry="18"/>
<text text-anchor="middle" x="156" y="-230.6" font-family="Times,serif" font-size="14.00" fill="#000000">tg&#45;link&#45;local&#45;tx</text>
</g>
<!-- tg_slowpath_terra_rx&#45;&gt;tg_link_local_tx -->
<g id="edge7" class="edge">
<title>tg_slowpath_terra_rx&#45;&gt;tg_link_local_tx</title>
<path fill="none" stroke="#000000" d="M156,-401.3637C156,-401.3637 156,-262.9095 156,-262.9095"/>
<polygon fill="#000000" stroke="#000000" points="159.5001,-262.9095 156,-252.9095 152.5001,-262.9096 159.5001,-262.9095"/>
<text text-anchor="middle" x="199.3433" y="-319.4" font-family="Times,serif" font-size="14.00" fill="#000000">slowpath ifaces</text>
</g>
<!-- tg_slowpath_wired_rx&#45;&gt;vpp_local_receive -->
<g id="edge17" class="edge">
<title>tg_slowpath_wired_rx&#45;&gt;vpp_local_receive</title>
<path fill="none" stroke="#000000" d="M346.8566,-401.2537C346.8566,-401.2537 346.8566,-262.8 346.8566,-262.8"/>
<polygon fill="#000000" stroke="#000000" points="350.3567,-262.8 346.8566,-252.8 343.3567,-262.8 350.3567,-262.8"/>
<text text-anchor="middle" x="314.4039" y="-336.2269" font-family="Times,serif" font-size="14.00" fill="#000000">other ifaces</text>
</g>
<!-- tg_wired_local_tx -->
<g id="node25" class="node">
<title>tg_wired_local_tx</title>
<ellipse fill="none" stroke="#000000" cx="542" cy="-234.8" rx="76.4188" ry="18"/>
<text text-anchor="middle" x="542" y="-230.6" font-family="Times,serif" font-size="14.00" fill="#000000">tg&#45;wired&#45;local&#45;tx</text>
</g>
<!-- tg_slowpath_wired_rx&#45;&gt;tg_wired_local_tx -->
<g id="edge16" class="edge">
<title>tg_slowpath_wired_rx&#45;&gt;tg_wired_local_tx</title>
<path fill="none" stroke="#000000" d="M439.4132,-411.9025C439.4132,-377.2171 439.4132,-234 439.4132,-234 439.4132,-234 455.5656,-234 455.5656,-234"/>
<polygon fill="#000000" stroke="#000000" points="455.5657,-237.5001 465.5656,-234 455.5656,-230.5001 455.5657,-237.5001"/>
<text text-anchor="middle" x="515.3433" y="-319.4" font-family="Times,serif" font-size="14.00" fill="#000000">slowpath ifaces</text>
</g>
<!-- tg_link_local_tx&#45;&gt;kernel_terraX_tx -->
<g id="edge10" class="edge">
<title>tg_link_local_tx&#45;&gt;kernel_terraX_tx</title>
<path fill="none" stroke="#000000" d="M156,-216.7808C156,-189.0298 156,-139 156,-139 156,-139 754.6719,-139 754.6719,-139"/>
<polygon fill="#000000" stroke="#000000" points="754.6719,-142.5001 764.6719,-139 754.6718,-135.5001 754.6719,-142.5001"/>
<text text-anchor="middle" x="129.1697" y="-204.1808" font-family="Times,serif" font-size="14.00" fill="#000000">dpdk&#45;dhd</text>
</g>
<!-- tg_link_local_rx&#45;&gt;baseband_tx -->
<g id="edge22" class="edge">
<title>tg_link_local_rx&#45;&gt;baseband_tx</title>
<path fill="none" stroke="#000000" d="M393,-987.973C393,-971.6024 393,-950 393,-950 393,-950 802,-950 802,-950 802,-950 802,-351.6714 802,-351.6714"/>
<polygon fill="#000000" stroke="#000000" points="805.5001,-351.6714 802,-341.6714 798.5001,-351.6714 805.5001,-351.6714"/>
</g>
<!-- tg_wired_local_tx&#45;&gt;kernel_tapX_tx -->
<g id="edge18" class="edge">
<title>tg_wired_local_tx&#45;&gt;kernel_tapX_tx</title>
<path fill="none" stroke="#000000" d="M618.6694,-234C709.1327,-234 847.3931,-234 847.3931,-234 847.3931,-234 847.3931,-167.317 847.3931,-167.317"/>
<polygon fill="#000000" stroke="#000000" points="850.8931,-167.3169 847.3931,-157.317 843.8931,-167.317 850.8931,-167.3169"/>
<text text-anchor="middle" x="641.9955" y="-238.2" font-family="Times,serif" font-size="14.00" fill="#000000">tapcli&#45;tx</text>
</g>
<!-- tg_wired_local_rx&#45;&gt;ethernet_tx -->
<g id="edge21" class="edge">
<title>tg_wired_local_rx&#45;&gt;ethernet_tx</title>
<path fill="none" stroke="#000000" d="M635.087,-1005C739.5729,-1005 913.2638,-1005 913.2638,-1005 913.2638,-1005 913.2638,-351.8258 913.2638,-351.8258"/>
<polygon fill="#000000" stroke="#000000" points="916.7639,-351.8258 913.2638,-341.8258 909.7639,-351.8258 916.7639,-351.8258"/>
</g>
<!-- ethernet_input_terraX&#45;&gt;vpp_ip6_input -->
<g id="edge3" class="edge">
<title>ethernet_input_terraX&#45;&gt;vpp_ip6_input</title>
<path fill="none" stroke="#000000" d="M275.9244,-886.2708C275.9244,-857.5779 275.9244,-768 275.9244,-768 275.9244,-768 394.5426,-768 394.5426,-768"/>
<polygon fill="#000000" stroke="#000000" points="394.5426,-771.5001 404.5426,-768 394.5426,-764.5001 394.5426,-771.5001"/>
<text text-anchor="middle" x="294.2216" y="-827.4" font-family="Times,serif" font-size="14.00" fill="#000000">IPv6</text>
</g>
<!-- ethernet_input_terraX&#45;&gt;tg_link_local_tx -->
<g id="edge5" class="edge">
<title>ethernet_input_terraX:w&#45;&gt;tg_link_local_tx:w</title>
<path fill="none" stroke="#000000" d="M62.1682,-895C62.1682,-895 62.1682,-234 62.1682,-234 62.1682,-234 76,-234 76,-234"/>
<polygon fill="#000000" stroke="#000000" points="76,-237.5001 86,-234 76,-230.5001 76,-237.5001"/>
<text text-anchor="middle" x="46.6163" y="-561.7841" font-family="Times,serif" font-size="14.00" fill="#000000">WPA</text>
</g>
<!-- ethernet_input_wired&#45;&gt;vpp_ip6_input -->
<g id="edge14" class="edge">
<title>ethernet_input_wired&#45;&gt;vpp_ip6_input</title>
<path fill="none" stroke="#000000" d="M451,-876.8327C451,-876.8327 451,-796.3336 451,-796.3336"/>
<polygon fill="#000000" stroke="#000000" points="454.5001,-796.3336 451,-786.3336 447.5001,-796.3337 454.5001,-796.3336"/>
<text text-anchor="middle" x="464.2216" y="-827.4" font-family="Times,serif" font-size="14.00" fill="#000000">IPv6</text>
</g>
</g>
</svg>
