<svg xmlns="http://www.w3.org/2000/svg" xmlns:xlink="http://www.w3.org/1999/xlink" width="1339" height="1111"><g transform="translate(-132 -29)"><path d="M320 160h320v160H320z" stroke="#000" stroke-width="2" fill="#fff"/><use xlink:href="#a" transform="matrix(1,0,0,1,320,160) translate(59.21006944444443 97.66145833333334)"/><use xlink:href="#b" transform="matrix(1,0,0,1,320,160) translate(144.17534722222223 97.66145833333334)"/><path d="M960 160h320v160H960z" stroke="#000" stroke-width="2" fill="#fff"/><use xlink:href="#c" transform="matrix(1,0,0,1,960,160) translate(76.02430555555554 97.66145833333334)"/><path d="M960 640h320v160H960z" stroke="#000" stroke-width="2" fill="#fff"/><use xlink:href="#d" transform="matrix(1,0,0,1,960,640) translate(79.93055555555554 97.66145833333334)"/><path d="M960 960h320v160H960z" stroke="#000" stroke-width="2" fill="#fff"/><use xlink:href="#e" transform="matrix(1,0,0,1,960,960) translate(115.56423611111111 97.66145833333334)"/><path d="M320 640h160v160H320z" stroke="#000" stroke-width="2" fill="#fff"/><use xlink:href="#f" transform="matrix(1,0,0,1,320,640) translate(38.48090277777777 97.66145833333334)"/><path d="M640 640h160v160H640z" stroke="#000" stroke-width="2" fill="#fff"/><use xlink:href="#g" transform="matrix(1,0,0,1,640,640) translate(38.48090277777777 97.66145833333334)"/><path d="M400 321v300.5M400 321.03V320" stroke="#000" stroke-width="2" fill="none"/><path d="M400 636.76l-4.64-14.26h9.28z" stroke="#000" stroke-width="2"/><path d="M621.5 720.12L481 721" stroke="#000" stroke-width="2" fill="none"/><path d="M636.76 720.02l-14.23 4.72-.06-9.27z" stroke="#000" stroke-width="2"/><path d="M481.03 721H480M941.5 720.12L801 721" stroke="#000" stroke-width="2" fill="none"/><path d="M956.76 720.02l-14.23 4.72-.06-9.27z" stroke="#000" stroke-width="2"/><path d="M801.03 721H800M941.5 200h-283" stroke="#000" stroke-width="2" fill="none"/><path d="M956.76 200l-14.26 4.64v-9.28zM643.24 200l14.26-4.64v9.28z" stroke="#000" stroke-width="2"/><path d="M941.5 280H641" stroke="#000" stroke-width="2" fill="none"/><path d="M956.76 280l-14.26 4.64v-9.28z" stroke="#000" stroke-width="2"/><path d="M641.03 280H640M981.5 540H800V281" stroke="#000" stroke-width="2" fill="none"/><path d="M996.76 540l-14.26 4.64v-9.28z" stroke="#000" stroke-width="2"/><path d="M800 281.03V280M1040 321v160.5M1040 321.03V320" stroke="#000" stroke-width="2" fill="none"/><path d="M1040 496.76l-4.64-14.26h9.28z" stroke="#000" stroke-width="2"/><path d="M1000.83 540.56L1041 568l-.74 53.5M1000.85 540.58l-.85-.58" stroke="#000" stroke-width="2" fill="none"/><path d="M1040.04 636.76l-4.43-14.32 9.28.12z" stroke="#000" stroke-width="2"/><path d="M1120 801v140.5M1120 801.03V800" stroke="#000" stroke-width="2" fill="none"/><path d="M1120 956.76l-4.64-14.26h9.28z" stroke="#000" stroke-width="2"/><path d="M1440.36 899.82L1443 1039l-162 2" stroke="#000" stroke-width="2" fill="none"/><path d="M1450 881.26l-9.6 20.18-10.4-19.8M1440 881.45l.4 20" stroke="#000" stroke-width="2" fill="#fff"/><path d="M1281.03 1041H1280M163 78.82V240h156" stroke="#000" stroke-width="2" fill="none"/><path d="M173 60.45l-10 20-10-20M163 60.45v20" stroke="#000" stroke-width="2" fill="#fff"/><path d="M318.97 240H320" stroke="#000" stroke-width="2" fill="none"/><path d="M720 87h160v104H720z" stroke="#000" stroke-opacity="0" stroke-width="2" fill="#fff" fill-opacity="0"/><use xlink:href="#h" transform="matrix(1,0,0,1,720,87) translate(12.8125 47.71180555555556)"/><use xlink:href="#i" transform="matrix(1,0,0,1,720,87) translate(80.01736111111111 47.71180555555556)"/><use xlink:href="#j" transform="matrix(1,0,0,1,720,87) translate(40.49479166666667 80.61111111111111)"/><path d="M731 213h111v67H731z" stroke="#000" stroke-opacity="0" stroke-width="2" fill="#fff" fill-opacity="0"/><use xlink:href="#k" transform="matrix(1,0,0,1,731,213) translate(10.039930555555557 45.66145833333333)"/><path d="M420 413h196v67H420z" stroke="#000" stroke-opacity="0" stroke-width="2" fill="#fff" fill-opacity="0"/><use xlink:href="#l" transform="matrix(1,0,0,1,420,413) translate(12.036458333333329 45.66145833333333)"/><use xlink:href="#m" transform="matrix(1,0,0,1,420,413) translate(110.890625 45.66145833333333)"/><path d="M492 653h136v67H492z" stroke="#000" stroke-opacity="0" stroke-width="2" fill="#fff" fill-opacity="0"/><use xlink:href="#n" transform="matrix(1,0,0,1,492,653) translate(11.689236111111114 45.66145833333333)"/><path d="M797 653h167v67H797z" stroke="#000" stroke-opacity="0" stroke-width="2" fill="#fff" fill-opacity="0"/><use xlink:href="#o" transform="matrix(1,0,0,1,797,653) translate(12.362847222222229 45.66145833333333)"/><path d="M876 413h164v67H876z" stroke="#000" stroke-opacity="0" stroke-width="2" fill="#fff" fill-opacity="0"/><use xlink:href="#p" transform="matrix(1,0,0,1,876,413) translate(61.25347222222222 29.211805555555554)"/><use xlink:href="#q" transform="matrix(1,0,0,1,876,413) translate(36.53993055555556 62.111111111111114)"/><path d="M1220 321v300.5M1220 321.03V320" stroke="#000" stroke-width="2" fill="none"/><path d="M1220 636.76l-4.64-14.26h9.28z" stroke="#000" stroke-width="2"/><path d="M1242 413h160v104h-160z" stroke="#000" stroke-opacity="0" stroke-width="2" fill="#fff" fill-opacity="0"/><g><use xlink:href="#h" transform="matrix(1,0,0,1,1242,413) translate(12.8125 47.71180555555556)"/><use xlink:href="#i" transform="matrix(1,0,0,1,1242,413) translate(80.01736111111111 47.71180555555556)"/><use xlink:href="#r" transform="matrix(1,0,0,1,1242,413) translate(28.63715277777777 80.61111111111111)"/></g><defs><path d="M813 20c-458 0-705-273-710-731-5-449 256-722 701-719 323 2 501 105 605 332l-182 54c-76-154-207-229-428-230-335-2-502 220-502 563 0 339 185 576 516 576 185 0 358-63 451-156v-254H843v-160h597v486C1303-77 1082 20 813 20" id="s"/><path d="M761-1409c296-3 496 141 497 424 1 274-202 436-485 436H359V0H168v-1409h593zm305 426c0-182-109-273-328-273H359v556h387c213 0 320-94 320-283" id="t"/><path d="M692-1286c-195 0-347 51-347 223 0 101 58 144 134 179 135 62 487 105 623 191 97 62 170 147 170 304 0 130-50 231-152 302S875 20 690 20C347 20 148-99 93-338l185-37c46 178 190 245 419 246 213 0 386-61 386-250 0-223-244-222-431-271-182-48-288-69-390-156-64-54-103-133-103-247 0-121 47-214 139-279s224-98 396-98c318 0 471 80 545 324l-188 33c-44-155-158-213-359-213" id="u"/><g id="a"><use transform="matrix(0.017361111111111112,0,0,0.017361111111111112,0,0)" xlink:href="#s"/><use transform="matrix(0.017361111111111112,0,0,0.017361111111111112,27.65625,0)" xlink:href="#t"/><use transform="matrix(0.017361111111111112,0,0,0.017361111111111112,51.37152777777778,0)" xlink:href="#u"/></g><path d="M1366 0c4-412-9-843 9-1240-33 119-62 213-88 280L923 0H789L420-960c-31-92-62-184-89-280 13 403 5 827 7 1240H168v-1409h251l375 977c20 57 51 168 63 224 5-34 58-197 68-224l368-977h245V0h-172" id="v"/><path d="M571-1102c350 0 480 196 482 560 2 357-151 562-488 562C233 20 86-198 86-542c0-373 162-560 485-560zm-8 989c244 0 301-164 301-429 0-266-49-427-290-427-239 0-299 165-299 427 0 252 61 429 288 429" id="w"/><path d="M835 0c-5-29-11-137-10-174h-4C759-45 663 20 484 20 177 20 86-201 86-536c0-377 133-566 398-566 178 1 273 67 339 188-4-187-1-380-2-570h180v1261c0 113 2 187 6 223H835zm-14-554c0-255-58-415-289-415-91 0-151 37-196 101-76 109-77 543-1 651 44 63 105 98 195 98 235 0 291-173 291-435" id="x"/><path d="M476 20C225 20 133-99 133-361v-721h181v686c0 183 40 279 223 277 184-2 280-141 280-336v-627h180c3 345-6 754 6 1082H833c-5-68-6-94-8-185h-3C746-51 665 20 476 20" id="y"/><path d="M138 0v-1484h180V0H138" id="z"/><path d="M87-548c0-338 159-553 484-554 325-2 484 204 477 599H276c-1 227 88 385 302 388 146 2 246-65 283-166l158 45C954-65 807 20 578 20 240 20 87-193 87-548zm775-93c-19-206-90-328-294-328-185 0-285 140-290 328h584" id="A"/><g id="b"><use transform="matrix(0.017361111111111112,0,0,0.017361111111111112,0,0)" xlink:href="#v"/><use transform="matrix(0.017361111111111112,0,0,0.017361111111111112,29.618055555555557,0)" xlink:href="#w"/><use transform="matrix(0.017361111111111112,0,0,0.017361111111111112,49.392361111111114,0)" xlink:href="#x"/><use transform="matrix(0.017361111111111112,0,0,0.017361111111111112,69.16666666666667,0)" xlink:href="#y"/><use transform="matrix(0.017361111111111112,0,0,0.017361111111111112,88.94097222222223,0)" xlink:href="#z"/><use transform="matrix(0.017361111111111112,0,0,0.017361111111111112,96.84027777777779,0)" xlink:href="#A"/></g><path d="M1121 0v-653H359V0H168v-1409h191v596h762v-596h191V0h-191" id="B"/><path d="M513-963c-139 1-238 29-238 149 0 72 41 100 95 127 55 27 348 94 404 125 101 56 176 118 176 263C950-73 758 21 511 20 254 19 107-55 57-254l159-31c34 123 133 168 295 168 156 0 264-34 264-168 0-156-183-165-315-204-171-51-245-68-323-172-26-35-37-82-37-135 0-220 172-304 413-303 232 1 379 74 418 265l-162 20c-23-104-122-150-256-149" id="C"/><path d="M336-268c2 98 22 139 114 141 24 0 59-5 104-14V-8C495 8 434 16 372 16c-144 0-216-82-216-245v-722H31v-131h132l53-242h120v242h200v131H336v683" id="D"/><path d="M-31 407V277h1193v130H-31" id="E"/><path d="M1207-1021c-59-155-207-253-415-253-322-2-494 232-494 563 0 326 186 574 502 574 197 0 346-98 445-293l156 78C1298-131 1096 20 791 20c-448 0-682-279-687-731-5-437 254-721 686-719 309 2 507 125 598 349" id="F"/><path d="M1321-530c-7 359-228 550-590 550-350 0-573-184-573-532v-897h191v881c-2 253 132 393 381 393 255 0 401-146 401-406v-868h190v879" id="G"/><g id="c"><use transform="matrix(0.017361111111111112,0,0,0.017361111111111112,0,0)" xlink:href="#B"/><use transform="matrix(0.017361111111111112,0,0,0.017361111111111112,25.677083333333336,0)" xlink:href="#w"/><use transform="matrix(0.017361111111111112,0,0,0.017361111111111112,45.45138888888889,0)" xlink:href="#C"/><use transform="matrix(0.017361111111111112,0,0,0.017361111111111112,63.22916666666667,0)" xlink:href="#D"/><use transform="matrix(0.017361111111111112,0,0,0.017361111111111112,73.10763888888889,0)" xlink:href="#E"/><use transform="matrix(0.017361111111111112,0,0,0.017361111111111112,92.88194444444447,0)" xlink:href="#F"/><use transform="matrix(0.017361111111111112,0,0,0.017361111111111112,118.5590277777778,0)" xlink:href="#t"/><use transform="matrix(0.017361111111111112,0,0,0.017361111111111112,142.27430555555557,0)" xlink:href="#G"/></g><path d="M908-743c202 21 350 139 350 346 0 273-224 397-518 397H168v-1409h512c331 0 496 114 496 342 0 180-112 291-268 324zm-228-67c187 0 301-60 304-234 6-277-360-200-625-212v446h321zm50 657c212 0 335-66 335-259 0-166-117-249-350-249H359v508h371" id="H"/><path d="M797-207C713-60 620 16 414 20 203 24 88-98 87-302c0-112 37-198 111-258s192-93 356-96l243-4c10-201-43-307-232-305-154 2-223 43-242 172l-188-17c31-195 175-292 434-292s410 116 410 364v466c3 95 12 159 101 161 17 0 37-2 59-7V-6c-45 11-92 16-139 16-143-2-188-76-197-217h-6zm-525-92c-1 116 66 187 183 184 230-7 361-164 342-419-124 5-305-2-389 30-83 32-136 92-136 205" id="I"/><path d="M655-1102c307 0 398 221 398 556 0 377-133 566-398 566-180 0-272-66-339-188 1 22-7 151-10 168H132c4-36 6-110 6-223v-1261h180c-2 196 4 384-4 576h4c62-129 158-194 337-194zM318-529c0 254 57 416 289 416 91 0 152-37 197-101 76-109 76-543 0-651-44-63-105-98-195-98-236 0-291 169-291 434" id="J"/><path d="M663-1102c251 0 343 119 343 381V0H825v-686c0-183-40-279-223-277-184 2-280 141-280 336V0H142c-3-345 6-754-6-1082h170c5 68 6 94 8 185h3c76-134 157-205 346-205" id="K"/><g id="d"><use transform="matrix(0.017361111111111112,0,0,0.017361111111111112,0,0)" xlink:href="#H"/><use transform="matrix(0.017361111111111112,0,0,0.017361111111111112,23.71527777777778,0)" xlink:href="#I"/><use transform="matrix(0.017361111111111112,0,0,0.017361111111111112,43.489583333333336,0)" xlink:href="#C"/><use transform="matrix(0.017361111111111112,0,0,0.017361111111111112,61.267361111111114,0)" xlink:href="#A"/><use transform="matrix(0.017361111111111112,0,0,0.017361111111111112,81.04166666666667,0)" xlink:href="#J"/><use transform="matrix(0.017361111111111112,0,0,0.017361111111111112,100.81597222222223,0)" xlink:href="#I"/><use transform="matrix(0.017361111111111112,0,0,0.017361111111111112,120.59027777777779,0)" xlink:href="#K"/><use transform="matrix(0.017361111111111112,0,0,0.017361111111111112,140.36458333333334,0)" xlink:href="#x"/></g><path d="M189 0v-1409h191V0H189" id="L"/><path d="M359-1253v524h786v158H359V0H168v-1409h1001v156H359" id="M"/><path d="M0 20l411-1504h158L162 20H0" id="N"/><path d="M1328-1006c0 221-145 368-344 399L1384 0h-220L798-585H359V0H168v-1409h663c292-4 497 130 497 403zM820-736c188 2 316-89 316-268s-133-252-324-252H359v520h461" id="O"/><g id="e"><use transform="matrix(0.017361111111111112,0,0,0.017361111111111112,0,0)" xlink:href="#L"/><use transform="matrix(0.017361111111111112,0,0,0.017361111111111112,9.878472222222223,0)" xlink:href="#M"/><use transform="matrix(0.017361111111111112,0,0,0.017361111111111112,31.59722222222222,0)" xlink:href="#N"/><use transform="matrix(0.017361111111111112,0,0,0.017361111111111112,41.47569444444444,0)" xlink:href="#O"/><use transform="matrix(0.017361111111111112,0,0,0.017361111111111112,67.15277777777777,0)" xlink:href="#M"/></g><path d="M168 0v-1409h191v1253h712V0H168" id="P"/><path d="M156 0v-153h359v-1084l-318 227v-170l333-229h166v1256h343V0H156" id="Q"/><g id="f"><use transform="matrix(0.017361111111111112,0,0,0.017361111111111112,0,0)" xlink:href="#t"/><use transform="matrix(0.017361111111111112,0,0,0.017361111111111112,23.71527777777778,0)" xlink:href="#P"/><use transform="matrix(0.017361111111111112,0,0,0.017361111111111112,43.489583333333336,0)" xlink:href="#P"/><use transform="matrix(0.017361111111111112,0,0,0.017361111111111112,63.26388888888889,0)" xlink:href="#Q"/></g><path d="M572-1430c269 0 442 128 442 386 0 144-72 232-149 325-108 130-487 366-564 566h735V0H103v-127c119-285 378-432 583-627 76-72 141-150 143-284 1-156-100-244-257-244-156 0-263 93-277 238l-184-17c24-224 208-369 461-369" id="R"/><g id="g"><use transform="matrix(0.017361111111111112,0,0,0.017361111111111112,0,0)" xlink:href="#t"/><use transform="matrix(0.017361111111111112,0,0,0.017361111111111112,23.71527777777778,0)" xlink:href="#P"/><use transform="matrix(0.017361111111111112,0,0,0.017361111111111112,43.489583333333336,0)" xlink:href="#P"/><use transform="matrix(0.017361111111111112,0,0,0.017361111111111112,63.26388888888889,0)" xlink:href="#R"/></g><path d="M824-897c-1-17 6-175 12-185h171c-12 319-6 716-6 1051 0 304-151 456-453 456-226 0-374-90-417-267l181-26c24 102 112 157 241 156 179 0 269-105 269-315 0-57 3-120-2-174C759-74 647 8 472 8 339 8 242-36 180-124S86-350 86-539c0-191 33-332 100-423s169-137 306-137c167 0 273 85 332 202zm-38 579c48-119 46-331 0-450-42-108-118-197-250-197-92 0-154 37-201 100-78 107-74 530-4 643 63 101 251 129 353 47 43-35 77-81 102-143" id="S"/><path d="M320-908c63-128 152-193 335-193 133 0 233 45 299 134s99 230 99 421c0 377-133 566-398 566-167 0-279-63-336-188h-5c8 141 2 428 4 593H138V-861c0-111-2-185-6-221h174c5 33 9 134 10 174h4zm-2 380c0 254 57 415 289 415 89 0 149-37 195-99 76-105 79-547 1-653-45-62-105-97-194-97-243 1-291 184-291 434" id="T"/><g id="h"><use transform="matrix(0.017361111111111112,0,0,0.017361111111111112,0,0)" xlink:href="#S"/><use transform="matrix(0.017361111111111112,0,0,0.017361111111111112,19.774305555555557,0)" xlink:href="#T"/><use transform="matrix(0.017361111111111112,0,0,0.017361111111111112,39.548611111111114,0)" xlink:href="#C"/></g><path d="M137-1312v-172h180v172H137zM137 0v-1082h180V0H137" id="U"/><path d="M1195-963c-175 0-249 144-249 336V0H768v-686c-5-190-26-277-198-277-171 0-249 147-249 336V0H142c-3-345 6-754-6-1082h170c5 68 6 94 8 185h3c69-134 140-205 316-205 171 0 257 66 294 205h3c67-129 152-205 328-205 238 0 313 127 313 381V0h-178v-686c-5-190-26-277-198-277" id="V"/><g id="i"><use transform="matrix(0.017361111111111112,0,0,0.017361111111111112,0,0)" xlink:href="#D"/><use transform="matrix(0.017361111111111112,0,0,0.017361111111111112,9.878472222222223,0)" xlink:href="#U"/><use transform="matrix(0.017361111111111112,0,0,0.017361111111111112,17.77777777777778,0)" xlink:href="#V"/><use transform="matrix(0.017361111111111112,0,0,0.017361111111111112,47.395833333333336,0)" xlink:href="#A"/></g><path d="M496 424C268 175 127-92 127-532c0-438 143-704 369-952h174c-222 249-362 524-362 954 0 431 138 703 362 954H496" id="W"/><path d="M186-1484c228 249 369 516 369 956 0 438-143 704-369 952H12C235 172 374-97 374-530c0-431-140-704-362-954h174" id="X"/><g id="j"><use transform="matrix(0.017361111111111112,0,0,0.017361111111111112,0,0)" xlink:href="#W"/><use transform="matrix(0.017361111111111112,0,0,0.017361111111111112,11.840277777777779,0)" xlink:href="#L"/><use transform="matrix(0.017361111111111112,0,0,0.017361111111111112,21.71875,0)" xlink:href="#R"/><use transform="matrix(0.017361111111111112,0,0,0.017361111111111112,41.49305555555556,0)" xlink:href="#F"/><use transform="matrix(0.017361111111111112,0,0,0.017361111111111112,67.17013888888889,0)" xlink:href="#X"/></g><g id="k"><use transform="matrix(0.017361111111111112,0,0,0.017361111111111112,0,0)" xlink:href="#Q"/><use transform="matrix(0.017361111111111112,0,0,0.017361111111111112,19.774305555555557,0)" xlink:href="#t"/><use transform="matrix(0.017361111111111112,0,0,0.017361111111111112,43.489583333333336,0)" xlink:href="#t"/><use transform="matrix(0.017361111111111112,0,0,0.017361111111111112,67.20486111111111,0)" xlink:href="#u"/></g><path d="M715-719c191 17 334 134 334 330 0 274-191 409-478 409-283 0-463-130-493-382l186-17c24 167 126 250 307 250 177 0 294-88 291-266-3-174-149-246-344-244H416v-156h98c179 2 311-77 311-243 0-157-98-244-264-244-159 0-264 88-278 233l-181-14c23-229 206-367 461-367 262 0 447 124 447 373 0 197-120 298-295 334v4" id="Y"/><path d="M1059-705c0 235-42 415-125 539S729 20 567 20 283-42 202-165 80-468 80-705c0-242 39-423 118-544s204-181 375-181c166 0 288 61 367 183s119 303 119 542zM802-269c94-156 93-724 4-878-51-89-125-137-233-137-111 0-186 48-239 135-91 149-91 731 2 883 55 89 126 139 233 139 106 0 178-51 233-142" id="Z"/><path d="M187 0v-219h195V0H187" id="aa"/><path d="M1036-1263c-144 220-246 392-305 517C626-522 556-302 553 0H365c0-180 39-369 115-568s203-429 382-688H105v-153h931v146" id="ab"/><g id="l"><use transform="matrix(0.017361111111111112,0,0,0.017361111111111112,0,0)" xlink:href="#Y"/><use transform="matrix(0.017361111111111112,0,0,0.017361111111111112,19.774305555555557,0)" xlink:href="#Z"/><use transform="matrix(0.017361111111111112,0,0,0.017361111111111112,39.548611111111114,0)" xlink:href="#aa"/><use transform="matrix(0.017361111111111112,0,0,0.017361111111111112,49.427083333333336,0)" xlink:href="#ab"/><use transform="matrix(0.017361111111111112,0,0,0.017361111111111112,69.20138888888889,0)" xlink:href="#R"/></g><path d="M83 0v-137l605-806H117v-139h784v137L295-139h627V0H83" id="ac"/><g id="m"><use transform="matrix(0.017361111111111112,0,0,0.017361111111111112,0,0)" xlink:href="#v"/><use transform="matrix(0.017361111111111112,0,0,0.017361111111111112,29.618055555555557,0)" xlink:href="#B"/><use transform="matrix(0.017361111111111112,0,0,0.017361111111111112,55.29513888888889,0)" xlink:href="#ac"/></g><path d="M598-899c268 0 455 178 455 440 0 299-196 479-500 479C293 20 124-98 82-315l182-21c38 139 136 209 293 209 195 0 309-130 309-328 0-177-124-301-305-297-120 3-189 38-262 101H123l47-758h801v153H334l-27 447c78-60 175-90 291-90" id="ad"/><g id="n"><use transform="matrix(0.017361111111111112,0,0,0.017361111111111112,0,0)" xlink:href="#R"/><use transform="matrix(0.017361111111111112,0,0,0.017361111111111112,19.774305555555557,0)" xlink:href="#ad"/><use transform="matrix(0.017361111111111112,0,0,0.017361111111111112,39.548611111111114,0)" xlink:href="#v"/><use transform="matrix(0.017361111111111112,0,0,0.017361111111111112,69.16666666666667,0)" xlink:href="#B"/><use transform="matrix(0.017361111111111112,0,0,0.017361111111111112,94.84375,0)" xlink:href="#ac"/></g><path d="M881-319V0H711v-319H47v-140l645-950h189v948h198v142H881zm-170-887c-5 12-60 109-67 119-145 207-281 424-431 626h498v-745" id="ae"/><g id="o"><use transform="matrix(0.017361111111111112,0,0,0.017361111111111112,0,0)" xlink:href="#Y"/><use transform="matrix(0.017361111111111112,0,0,0.017361111111111112,19.774305555555557,0)" xlink:href="#ab"/><use transform="matrix(0.017361111111111112,0,0,0.017361111111111112,39.548611111111114,0)" xlink:href="#aa"/><use transform="matrix(0.017361111111111112,0,0,0.017361111111111112,49.427083333333336,0)" xlink:href="#ae"/><use transform="matrix(0.017361111111111112,0,0,0.017361111111111112,69.20138888888889,0)" xlink:href="#v"/><use transform="matrix(0.017361111111111112,0,0,0.017361111111111112,98.81944444444444,0)" xlink:href="#B"/><use transform="matrix(0.017361111111111112,0,0,0.017361111111111112,124.49652777777777,0)" xlink:href="#ac"/></g><path d="M1167 0l-161-412H364L202 0H4l575-1409h217L1362 0h-195zM685-1265c-69 226-179 482-263 704h527c-89-236-186-456-264-704" id="af"/><g id="p"><use transform="matrix(0.017361111111111112,0,0,0.017361111111111112,0,0)" xlink:href="#af"/><use transform="matrix(0.017361111111111112,0,0,0.017361111111111112,23.71527777777778,0)" xlink:href="#z"/><use transform="matrix(0.017361111111111112,0,0,0.017361111111111112,31.614583333333336,0)" xlink:href="#D"/></g><g id="q"><use transform="matrix(0.017361111111111112,0,0,0.017361111111111112,0,0)" xlink:href="#Q"/><use transform="matrix(0.017361111111111112,0,0,0.017361111111111112,19.774305555555557,0)" xlink:href="#t"/><use transform="matrix(0.017361111111111112,0,0,0.017361111111111112,43.489583333333336,0)" xlink:href="#t"/><use transform="matrix(0.017361111111111112,0,0,0.017361111111111112,67.20486111111111,0)" xlink:href="#u"/></g><g id="r"><use transform="matrix(0.017361111111111112,0,0,0.017361111111111112,0,0)" xlink:href="#W"/><use transform="matrix(0.017361111111111112,0,0,0.017361111111111112,11.840277777777779,0)" xlink:href="#t"/><use transform="matrix(0.017361111111111112,0,0,0.017361111111111112,35.55555555555556,0)" xlink:href="#F"/><use transform="matrix(0.017361111111111112,0,0,0.017361111111111112,61.23263888888889,0)" xlink:href="#L"/><use transform="matrix(0.017361111111111112,0,0,0.017361111111111112,71.11111111111111,0)" xlink:href="#A"/><use transform="matrix(0.017361111111111112,0,0,0.017361111111111112,90.88541666666667,0)" xlink:href="#X"/></g></defs></g></svg>
