<?xml version="1.0" encoding="utf-8"?>
<!-- Generator: Adobe Illustrator 26.0.1, SVG Export Plug-In . SVG Version: 6.00 Build 0)  -->
<svg version="1.1" xmlns="http://www.w3.org/2000/svg" xmlns:xlink="http://www.w3.org/1999/xlink" x="0px" y="0px"
	 viewBox="0 0 35 32" style="enable-background:new 0 0 35 32;" xml:space="preserve">
<style type="text/css">
	.st0{fill:url(#SVGID_1_);}
</style>
<g id="Guides_DO_NOT_PRINT">
</g>
<g id="Artwork">
	<linearGradient id="SVGID_1_" gradientUnits="userSpaceOnUse" x1="17.4881" y1="0" x2="17.4881" y2="32">
		<stop  offset="0.2" style="stop-color:#312CB5"/>
		<stop  offset="1" style="stop-color:#009EC9"/>
	</linearGradient>
	<path class="st0" d="M31.8,9.2V4.5c1-0.3,1.7-1.2,1.7-2.2c0-1.3-1-2.3-2.3-2.3s-2.3,1-2.3,2.3c0,0.4,0.1,0.8,0.3,1.1l-6,6
		c-0.3-0.2-0.7-0.3-1.1-0.3c-1.3,0-2.3,1-2.3,2.3c0,0.4,0.1,0.8,0.3,1.1l-6,6c-0.2-0.1-0.3-0.2-0.5-0.2v-4.7c1-0.3,1.7-1.2,1.7-2.2
		c0-1.3-1-2.3-2.3-2.3c-1.1,0-1.9,0.7-2.2,1.7H6C5.8,10,5.2,9.4,4.4,9.2V4.5C5.2,4.3,5.8,3.7,6,2.9h4.7c0.3,1,1.2,1.7,2.2,1.7
		s1.9-0.7,2.2-1.7h4.7c0.3,1,1.2,1.7,2.2,1.7c1.3,0,2.3-1,2.3-2.3c0-1.3-1-2.3-2.3-2.3c-1.1,0-1.9,0.7-2.2,1.7h-4.7
		C14.9,0.7,14,0,12.9,0S11,0.7,10.7,1.7H6C5.7,0.7,4.8,0,3.8,0C2.5,0,1.5,1,1.5,2.3c0,1.1,0.7,1.9,1.7,2.2v4.7
		c-1,0.3-1.7,1.2-1.7,2.2c0,1.3,1,2.3,2.3,2.3C4.8,13.7,5.7,13,6,12h4.7c0.2,0.8,0.8,1.4,1.6,1.6v4.7c-1,0.3-1.7,1.2-1.7,2.2
		c0,1.3,1,2.3,2.3,2.3c1.3,0,2.3-1,2.3-2.3c0-0.4-0.1-0.8-0.3-1.1l6-6c0.2,0.1,0.3,0.2,0.5,0.2v4.7c-1,0.3-1.7,1.2-1.7,2.2
		s0.7,1.9,1.7,2.2v4.7c-0.8,0.2-1.4,0.8-1.6,1.6h-4.7c-0.3-1-1.2-1.7-2.2-1.7c-1.3,0-2.3,1-2.3,2.3c0,1.3,1,2.3,2.3,2.3
		c1,0,1.9-0.7,2.2-1.6h4.7c0.3,0.9,1.2,1.6,2.2,1.6c1.3,0,2.3-1,2.3-2.3c0-1.1-0.7-1.9-1.7-2.2v-4.7c1-0.3,1.7-1.2,1.7-2.2
		c0-1.1-0.7-1.9-1.7-2.2v-4.7c1-0.3,1.7-1.2,1.7-2.2c0-0.4-0.1-0.8-0.3-1.1l6-6c0.2,0.1,0.3,0.2,0.5,0.2v4.7c-1,0.3-1.7,1.2-1.7,2.2
		c0,1.3,1,2.3,2.3,2.3s2.3-1,2.3-2.3C33.5,10.4,32.8,9.5,31.8,9.2z"/>
</g>
</svg>
