<svg width="232" height="202" xmlns="http://www.w3.org/2000/svg" xmlns:xlink="http://www.w3.org/1999/xlink" overflow="hidden"><defs><clipPath id="clip0"><rect x="2802" y="1643" width="232" height="202"/></clipPath></defs><g clip-path="url(#clip0)" transform="translate(-2802 -1643)"><path d="M3007.42 1796.9 2944.58 1796.9 2891.42 1796.9 2828.58 1796.9C2821.91 1796.9 2816.5 1791.51 2816.5 1784.88L2816.5 1777.67 3019.5 1777.67 3019.5 1784.88C3019.5 1791.51 3014.09 1796.9 3007.42 1796.9ZM2937.33 1830.57 2898.67 1830.57 2898.67 1811.33 2937.33 1811.33C2937.33 1811.33 2937.33 1830.57 2937.33 1830.57ZM2828.58 1657.43 2961.5 1657.43 2961.5 1763.24 2816.5 1763.24 2816.5 1669.46C2816.5 1662.83 2821.91 1657.43 2828.58 1657.43ZM3019.5 1669.46 3019.5 1676.67 2976 1676.67 2976 1657.43 3007.42 1657.43C3014.09 1657.43 3019.5 1662.83 3019.5 1669.46ZM2976 1705.53 3019.5 1705.53 3019.5 1763.24 2976 1763.24C2976 1763.24 2976 1705.53 2976 1705.53ZM3007.42 1643 2828.58 1643C2813.92 1643 2802 1654.87 2802 1669.46L2802 1784.88C2802 1799.47 2813.92 1811.33 2828.58 1811.33L2884.17 1811.33 2884.17 1830.57 2860 1830.57C2855.99 1830.57 2852.75 1833.8 2852.75 1837.79 2852.75 1841.77 2855.99 1845 2860 1845L2891.42 1845 2944.58 1845 2976 1845C2980.01 1845 2983.25 1841.77 2983.25 1837.79 2983.25 1833.8 2980.01 1830.57 2976 1830.57L2951.83 1830.57 2951.83 1811.33 3007.42 1811.33C3022.08 1811.33 3034 1799.47 3034 1784.88L3034 1669.46C3034 1654.87 3022.08 1643 3007.42 1643Z" fill="#677B8C" fill-rule="evenodd"/></g></svg>