<svg width="219" height="160" xmlns="http://www.w3.org/2000/svg" xmlns:xlink="http://www.w3.org/1999/xlink" overflow="hidden"><defs><clipPath id="clip0"><rect x="1292" y="970" width="219" height="160"/></clipPath></defs><g clip-path="url(#clip0)" transform="translate(-1292 -970)"><path d="M1400.93 970C1362.23 970 1323.6 984.637 1294.14 1013.94 1291.29 1016.78 1291.29 1021.4 1294.14 1024.24 1297 1027.08 1301.65 1027.08 1304.51 1024.24 1357.73 971.311 1444.28 971.311 1497.5 1024.24 1498.94 1025.66 1500.82 1026.36 1502.69 1026.36 1504.55 1026.36 1506.43 1025.67 1507.87 1024.24 1510.72 1021.4 1510.72 1016.78 1507.87 1013.94 1478.41 984.637 1439.63 970 1400.93 970ZM1400.63 1018.48C1374.41 1018.48 1348.22 1028.48 1328.27 1048.33 1325.41 1051.17 1325.41 1055.64 1328.27 1058.48 1331.12 1061.33 1335.76 1061.33 1338.63 1058.48 1372.84 1024.46 1428.56 1024.46 1462.77 1058.48 1464.2 1059.9 1465.93 1060.61 1467.8 1060.61 1469.67 1060.61 1471.55 1059.9 1472.98 1058.48 1475.84 1055.64 1475.84 1051.17 1472.98 1048.33 1453.03 1028.48 1426.84 1018.48 1400.63 1018.48ZM1400.32 1066.97C1386.59 1066.97 1372.84 1072.18 1362.39 1082.58 1359.54 1085.41 1359.54 1090.04 1362.39 1092.88 1365.25 1095.72 1369.89 1095.72 1372.74 1092.88 1387.95 1077.76 1412.69 1077.76 1427.9 1092.88 1429.32 1094.3 1431.2 1095 1433.07 1095 1434.95 1095 1436.83 1094.3 1438.25 1092.88 1441.1 1090.04 1441.1 1085.41 1438.25 1082.58 1427.79 1072.18 1414.05 1066.97 1400.32 1066.97ZM1399.26 1110.61C1393.87 1110.61 1389.51 1114.95 1389.51 1120.3 1389.51 1125.66 1393.87 1130 1399.26 1130 1404.64 1130 1409 1125.66 1409 1120.3 1409 1114.95 1404.64 1110.61 1399.26 1110.61Z" fill="#677B8C" fill-rule="evenodd"/></g></svg>